<?xml version="1.0" encoding="UTF-8" standalone="no"?>
<!-- Created with Inkscape (http://www.inkscape.org/) -->

<svg
   xmlns:dc="http://purl.org/dc/elements/1.1/"
   xmlns:cc="http://creativecommons.org/ns#"
   xmlns:rdf="http://www.w3.org/1999/02/22-rdf-syntax-ns#"
   xmlns:svg="http://www.w3.org/2000/svg"
   xmlns="http://www.w3.org/2000/svg"
   xmlns:sodipodi="http://sodipodi.sourceforge.net/DTD/sodipodi-0.dtd"
   xmlns:inkscape="http://www.inkscape.org/namespaces/inkscape"
   sodipodi:docname="corazon.svg"
   inkscape:version="0.48.4 r9939"
   version="1.1"
   id="svg3097"
   height="248.03149"
   width="283.46457">
  <sodipodi:namedview
     id="base"
     pagecolor="#ffffff"
     bordercolor="#666666"
     borderopacity="1.0"
     inkscape:pageopacity="0.0"
     inkscape:pageshadow="2"
     inkscape:zoom="1.1621251"
     inkscape:cx="133.56235"
     inkscape:cy="119.89912"
     inkscape:document-units="px"
     inkscape:current-layer="layer1"
     showgrid="false"
     inkscape:window-width="1024"
     inkscape:window-height="549"
     inkscape:window-x="0"
     inkscape:window-y="30"
     inkscape:window-maximized="1"
     fit-margin-top="0"
     fit-margin-left="0"
     fit-margin-right="0"
     fit-margin-bottom="0"
     showguides="false"
     units="mm"
     inkscape:showpageshadow="false" />
  <defs
     id="defs3099">
    <inkscape:path-effect
       effect="rough_hatches"
       id="path-effect3082"
       is_visible="true"
       direction="154.66415,165.04706 , 26.107364,-4.3024647"
       dist_rdm="0;1"
       growth="0"
       do_bend="false"
       bender="164.55981,172.19829 , 16.616649,4.7200437"
       bottom_edge_variation="0;1019832390"
       top_edge_variation="0;2145327669"
       bottom_tgt_variation="0;1734242489"
       top_tgt_variation="0;1"
       scale_bf="1.3"
       scale_bb="1"
       scale_tf="1"
       scale_tb="1"
       top_smth_variation="0;1"
       bottom_smth_variation="0;1"
       fat_output="false"
       stroke_width_top="1"
       stroke_width_bottom="0.7"
       front_thickness="0.6"
       back_thickness="0.05" />
    <inkscape:path-effect
       effect="vonkoch"
       id="path-effect3064"
       is_visible="true"
       ref_path="m -160.70361,123.29026 185.577843,0"
       generator="m -160.70361,197.8467 61.859283,0 m 61.85928,0 61.85928,0"
       similar_only="false"
       nbgenerations="1"
       drawall="true"
       maxComplexity="1000" />
    <inkscape:path-effect
       effect="rough_hatches"
       id="path-effect3062"
       is_visible="true"
       direction="-64.597756,122.38768 , 49.340663,0"
       dist_rdm="75;1"
       growth="0"
       do_bend="true"
       bender="-64.597756,127.38768 , 5,0"
       bottom_edge_variation="16.493759;1"
       top_edge_variation="16.493759;1"
       bottom_tgt_variation="0;1"
       top_tgt_variation="0;1"
       scale_bf="1"
       scale_bb="1"
       scale_tf="1"
       scale_tb="1"
       top_smth_variation="0;1"
       bottom_smth_variation="0;1"
       fat_output="true"
       stroke_width_top="1"
       stroke_width_bottom="1"
       front_thickness="1"
       back_thickness="0.25" />
    <inkscape:path-effect
       effect="rough_hatches"
       id="path-effect3053"
       is_visible="true"
       direction="148.15514,177.13411 , 49.340569,0"
       dist_rdm="14;1"
       growth="0"
       do_bend="true"
       bender="148.15514,182.13411 , 5,0"
       bottom_edge_variation="5;1"
       top_edge_variation="4;1"
       bottom_tgt_variation="0;1"
       top_tgt_variation="0;1"
       scale_bf="1"
       scale_bb="1"
       scale_tf="1"
       scale_tb="1"
       top_smth_variation="0;1"
       bottom_smth_variation="0;1"
       fat_output="true"
       stroke_width_top="1"
       stroke_width_bottom="1"
       front_thickness="1"
       back_thickness="0.25" />
    <symbol
       id="*Paper_Space0" />
    <symbol
       id="*Paper_Space" />
    <symbol
       id="*Model_Space" />
    <marker
       refY="0"
       refX="0"
       style="overflow:visible"
       id="DistanceX"
       orient="auto">
      <path
         inkscape:connector-curvature="0"
         style="stroke:#000000;stroke-width:0.5"
         d="M 3,-3 -3,3 M 0,-5 0,5"
         id="path3184" />
    </marker>
  </defs>
  <metadata
     id="metadata3102">
    <rdf:RDF>
      <cc:Work
         rdf:about="">
        <dc:format>image/svg+xml</dc:format>
        <dc:type
           rdf:resource="http://purl.org/dc/dcmitype/StillImage" />
        <dc:title></dc:title>
      </cc:Work>
    </rdf:RDF>
  </metadata>
  <g
     transform="translate(-6.4228571,-58.118365)"
     id="layer1"
     inkscape:groupmode="layer"
     inkscape:label="Layer 1">
    <path
       style="fill:none;stroke:#000000;stroke-width:1px;stroke-linecap:butt;stroke-linejoin:miter;stroke-opacity:1"
       d="m 150.64341,130.55558 c 0,0 -2.98061,-3.33886 -6.63507,-7.43255 -2.13501,-2.39162 -4.50002,-5.04089 -6.63503,-7.43251 -3.65448,-4.09372 -6.63512,-7.43261 -6.63512,-7.43261 -2.14646,-2.40445 -5.01617,-4.12356 -8.33912,-5.28639 -2.96157,-1.03637 -6.28316,-1.63088 -9.7736,-1.8749 -3.22872,-0.22572 -6.60192,-0.15155 -9.9683,0.1502 -3.34282,0.29963 -6.67892,0.82367 -9.86015,1.50129 -3.44997,0.73486 -6.7178,1.65036 -9.614548,2.65616 -2.84845,0.98904 -5.64432,2.22381 -8.33039,3.67711 -2.67267,1.44604 -5.23663,3.10842 -7.63552,4.96035 -2.42215,1.86988 -4.676019,3.933 -6.703574,6.16175 -2.066153,2.27118 -3.897296,4.71436 -5.432029,7.30034 -1.561949,2.63184 -2.816882,5.41158 -3.700072,8.30845 -0.933728,3.06263 -1.527477,6.0403 -1.774779,8.99974 -0.254788,3.04903 -0.141837,6.07872 0.345927,9.16206 0.456898,2.88822 1.242673,5.82352 2.363139,8.86589 0.992136,2.69391 2.246686,5.47178 3.767687,8.37524 1.332226,2.5431 2.868867,5.18257 4.612636,7.94637 1.546729,2.4515 3.399405,5.07657 5.486665,7.8128 1.83422,2.40452 3.8496,4.89488 5.9977,7.42873 2.00239,2.36198 4.12012,4.76175 6.31395,7.16499 2.1222,2.32478 4.31561,4.65282 6.54472,6.95306 2.222238,2.29314 4.479958,4.55866 6.737978,6.76579 2.3191,2.26682 4.63851,4.47204 6.92013,6.58233 2.42807,2.24576 4.81333,4.38401 7.10986,6.37457 2.58303,2.2389 5.05379,4.29098 7.34693,6.09906 0,0 3.16518,2.49567 7.67785,6.05381 2.29139,1.8067 4.9302,3.88734 7.67846,6.05427 2.52834,1.99354 5.14931,4.06012 7.67763,6.05364 2.74785,2.16661 5.38625,4.24693 7.67735,6.0534 4.51284,3.55827 7.67817,6.05406 7.67817,6.05406 0,0 2.68522,-2.36811 6.51359,-5.74438 1.94392,-1.71436 4.18258,-3.68865 6.51409,-5.74483 2.14495,-1.89164 4.36848,-3.85259 6.5134,-5.74421 2.33159,-2.05625 4.5703,-4.03058 6.51422,-5.74493 3.82795,-3.3759 6.5128,-5.74369 6.5128,-5.74369 2.03596,-1.79553 4.28423,-3.90757 6.66701,-6.24769 2.05524,-2.01844 4.21056,-4.20657 6.41606,-6.50763 2.05199,-2.14092 4.14742,-4.37961 6.24609,-6.67036 2.04426,-2.23138 4.09159,-4.51215 6.10484,-6.8001 2.03652,-2.31439 4.03817,-4.63611 5.96649,-6.92145 2.03272,-2.40906 3.98395,-4.77768 5.80866,-7.05466 2.04254,-2.54881 3.92654,-4.98278 5.58882,-7.23009 2.12244,-2.86942 3.88341,-5.43452 5.15142,-7.5458 1.99688,-3.32488 3.71614,-5.98601 5.19691,-8.28631 2.08786,-3.2434 3.70157,-5.76944 4.95079,-8.42725 1.26271,-2.68651 2.15302,-5.50766 2.78418,-9.34037 0.44523,-2.70369 0.94926,-5.58624 1.3177,-8.55278 0.35123,-2.82795 0.57926,-5.73223 0.5157,-8.63065 -0.0632,-2.88086 -0.41441,-5.75593 -1.21905,-8.54452 -0.77607,-2.68962 -1.97394,-5.29879 -3.74194,-7.7551 -1.58057,-2.19591 -3.5356,-4.35681 -5.76413,-6.41294 -2.05068,-1.89204 -4.33294,-3.69536 -6.76812,-5.3556 -2.36038,-1.60924 -4.86442,-3.08406 -7.44048,-4.37496 -2.60838,-1.30709 -5.2906,-2.42561 -7.97229,-3.30417 -2.83247,-0.92795 -5.66435,-1.58821 -8.40801,-1.92021 -2.61438,-0.316364 -5.3647,-0.419993 -8.14687,-0.306952 -2.70104,0.109744 -5.43209,0.423702 -8.09791,0.945482 -2.71302,0.53102 -5.35849,1.27729 -7.83599,2.2426 -2.62602,1.02318 -5.06334,2.29244 -7.19241,3.81232 -2.29879,1.64104 -4.23822,3.57425 -5.66781,5.80531 0,0 -2.68443,2.70273 -5.97574,6.01647 -1.92286,1.93596 -4.05285,4.08047 -5.97571,6.01644 -3.29133,3.31376 -5.97579,6.01651 -5.97579,6.01651"
       id="path10325"
       inkscape:connector-curvature="0"
       sodipodi:nodetypes="cszzzscszzzzsc" />
    <path
       style="fill:none;stroke:#000000;stroke-width:1px;stroke-linecap:butt;stroke-linejoin:miter;stroke-opacity:1"
       d="m 100.81261,167.48458 c -0.854977,2.71704 -1.323967,5.55879 -1.451597,8.46426 -0.12379,2.81803 0.0735,5.69601 0.55125,8.57827 0.462447,2.79018 1.187657,5.58437 2.138677,8.3321 0.93214,2.69319 2.08121,5.34174 3.41242,7.89811 1.32939,2.55288 2.84041,5.01383 4.49843,7.33552 1.69129,2.36827 3.53552,4.59163 5.49591,6.61983 2.04649,2.11726 4.21957,4.02185 6.4774,5.6566 2.58701,1.87309 5.49694,3.4103 8.6069,4.6071 2.99915,1.15417 6.18434,1.99175 9.44533,2.5087 3.21376,0.50945 6.50115,0.70748 9.75666,0.5902 3.29658,-0.11876 6.56048,-0.56084 9.68216,-1.33028 3.23812,-0.79813 6.32322,-1.9485 9.13301,-3.45561 2.79464,-1.49898 5.54664,-3.35963 8.17261,-5.50569 2.50248,-2.04516 4.89051,-4.34953 7.0919,-6.84712 2.1723,-2.46458 4.16287,-5.11731 5.90235,-7.89479 1.76845,-2.82372 3.27738,-5.77639 4.45394,-8.79136 1.22171,-3.13068 2.08503,-6.32855 2.50839,-9.51901 0.43937,-3.3111 0.40487,-6.61423 -0.19469,-9.826 -0.56709,-3.03784 -1.58484,-6.0141 -2.97472,-8.88208 -1.33884,-2.76268 -3.02297,-5.42487 -4.98218,-7.94485 -1.89424,-2.4364 -4.04562,-4.73985 -6.39069,-6.87263 -2.30456,-2.09593 -4.79617,-4.02703 -7.41461,-5.75749 -2.62639,-1.7357 -5.38038,-3.26955 -8.2012,-4.56539 -2.89241,-1.32874 -5.85508,-2.40724 -8.82251,-3.19655 -3.10682,-0.82639 -6.21885,-1.33578 -9.2609,-1.48347 -2.81174,-0.13651 -5.711,0.0565 -8.62866,0.54331 -2.7944,0.46625 -5.60568,1.20202 -8.37309,2.17595 -2.69827,0.94959 -5.35484,2.12559 -7.91341,3.49894 -2.54668,1.36696 -4.99627,2.92943 -7.29325,4.65875 -2.33093,1.75489 -4.50471,3.68159 -6.46332,5.75016 -2.02129,2.13478 -3.81342,4.42064 -5.31262,6.82468 -1.55589,2.49494 -2.79628,5.11715 -3.64989,7.82984 0,0 0,0 0,0"
       id="path11366"
       inkscape:connector-curvature="0"
       sodipodi:nodetypes="aaaaaa" />
    <path
       style="fill:none;stroke:#000000;stroke-width:1px;stroke-linecap:butt;stroke-linejoin:miter;stroke-opacity:1"
       d="m 111.36175,216.2994 c 0,0 1.85524,-3.33943 4.74544,-8.54179 1.37643,-2.47758 2.9876,-5.37768 4.7449,-8.54082 1.49421,-2.68959 3.09408,-5.56935 4.74514,-8.54125 1.55149,-2.79268 3.14818,-5.66672 4.74487,-8.54076 1.59671,-2.87408 3.19342,-5.74817 4.74494,-8.5409 1.65121,-2.97217 3.25122,-5.8522 4.74557,-8.54203 1.7575,-3.16349 3.36883,-6.06388 4.74537,-8.54166 2.89007,-5.20212 4.7452,-8.54136 4.7452,-8.54136 0,0 1.74107,3.33943 4.45341,8.54179 1.29173,2.47758 2.80375,5.37768 4.45291,8.54082 1.40226,2.68959 2.90368,5.56935 4.45313,8.54125 1.45602,2.79268 2.95445,5.66672 4.45288,8.54076 1.49845,2.87408 2.99691,5.74817 4.45295,8.5409 1.54959,2.97217 3.05115,5.8522 4.45354,8.54203 1.64934,3.16349 3.16151,6.06388 4.45334,8.54166 2.71222,5.20212 4.45319,8.54136 4.45319,8.54136"
       id="path11368"
       inkscape:connector-curvature="0"
       sodipodi:nodetypes="ccc" />
    <path
       style="fill:none;stroke:#000000;stroke-width:1px;stroke-linecap:butt;stroke-linejoin:miter;stroke-opacity:1"
       d="m 171.22402,182.13411 c 0,0 -3.80403,0 -9.2275,0 -2.75387,0 -5.92528,0 -9.22823,0 -3.03864,0 -6.18862,0 -9.22724,0 -3.30245,0 -6.47338,0 -9.22689,0 -5.42368,0 -9.22789,0 -9.22789,0"
       id="path11370"
       inkscape:connector-curvature="0"
       sodipodi:nodetypes="cc" />
    <path
       style="fill:none;stroke:#ff0000;stroke-width:1px;stroke-linecap:butt;stroke-linejoin:miter;stroke-opacity:1"
       d="m 247.29051,141.30479 c 0,0 -2.43219,-14.75852 -5.89379,-19.49136 -3.46161,-4.73284 4.01516,35.75458 1.52362,41.78978 -1.91657,4.64246 -11.22884,-51.86444 -14.23308,-53.82197 -3.00424,-1.95754 8.70269,64.19844 5.94636,68.62691 -2.12025,3.4065 -14.804,-73.55848 -17.6652,-74.64804 -2.8612,-1.08957 11.89628,83.57715 9.03214,87.3514 -2.20319,2.90326 -17.4953,-89.88928 -20.23078,-90.21601 -2.73549,-0.32672 14.24939,97.85587 11.3372,101.33857 -2.24015,2.679 -19.44302,-101.70807 -22.08271,-101.45352 -2.63969,0.25456 16.01428,108.56523 13.07391,111.87692 -2.26182,2.54746 -20.90926,-110.60524 -23.45961,-109.80858 -2.55035,0.79665 8.24508,61.42171 3.83618,55.82238 -3.39145,-4.30717 -11.36178,-52.67114 -13.75654,-50.93035 -2.39476,1.74079 4.99278,41.68677 1.06892,39.0306 -3.01836,-2.0432 -7.98349,-32.17162 -10.28232,-29.84872 -2.29883,2.3229 2.25252,25.05886 -1.4748,23.59529 -2.86718,-1.12582 -5.34418,-16.15627 -5.34418,-16.15627 m 37.63465,65.64516 c 0,0 5.65399,29.42672 2.6827,32.55082 -2.2856,2.40316 -6.43946,-22.8025 -8.55095,-19.34281 -2.11149,3.45969 2.36474,25.73977 -0.64445,28.63389 -2.31476,2.22624 -5.91394,-19.6136 -8.21648,-17.31323 -2.30254,2.30036 1.93206,23.1143 -1.11051,25.8058 -2.34045,2.0704 -5.92543,-19.68326 -8.35153,-18.13264 -2.4261,1.55062 2.03259,23.72426 -1.0111,26.40901 -2.3413,2.06519 -6.39478,-22.53131 -8.94706,-21.74638 -2.55229,0.78494 2.62475,27.31751 -0.41783,30.00902 -2.34044,2.07039 -7.34644,-28.306 -9.99959,-28.13315 -2.65316,0.17286 3.77035,34.26903 0.31644,34.46456 -2.65686,0.1504 -8.36848,-34.50774 -11.11752,-34.91671 -2.74904,-0.40896 3.22172,30.93994 -0.78516,27.78004 -3.08221,-2.43069 -7.57801,-29.7112 -10.46229,-30.94079 -2.88427,-1.22958 2.13982,24.37496 -1.86494,21.22793 -3.08058,-2.42079 -7.03149,-26.39491 -10.21219,-29.4232 -3.1807,-3.0283 1.89355,22.88064 -2.11642,19.70196 -3.0846,-2.44514 -8.00027,-32.27347 -8.00027,-32.27347 m 31.92734,-66.62001 c 0,0 -3.93768,-23.89387 -7.18354,-27.31753 -3.24585,-3.42365 2.78315,28.27869 -0.51023,29.44834 -2.53336,0.89974 -8.61439,-35.99998 -11.41443,-36.71843 -2.80005,-0.71846 4.63706,39.52824 1.46352,41.42505 -2.44119,1.45908 -9.72257,-42.72434 -12.40535,-42.73124 -2.68277,-0.007 5.88497,47.10051 2.86942,49.956 -2.31966,2.19653 -10.84808,-49.55397 -13.467133,-49.17417 -2.61905,0.3798 7.317333,55.79215 4.701853,61.07524 -2.01191,4.06391 -12.505287,-59.6099 -15.070028,-58.90055 -2.56474,0.70935 18.725878,125.01922 14.638908,121.37334 -3.14382,-2.80453 -22.26938,-118.85846 -24.760155,-117.70029 -2.490775,1.15817 16.222447,109.82838 12.057345,105.70839 -3.203925,-3.16922 -19.431462,-101.63794 -21.81972,-99.8577 -2.388257,1.78025 13.115864,90.97763 8.844861,86.21504 -3.285387,-3.66354 -15.878795,-80.08036 -18.105171,-77.31782 -2.226377,2.76255 9.162102,66.9862 4.601108,60.46393 -3.508458,-5.01712 -10.935581,-50.08492 -12.424591,-42.84804 -1.48901,7.23689 0.838808,21.36209 0.838808,21.36209"
       id="path3073"
       inkscape:path-effect="#path-effect3082"
       inkscape:original-d="m 199.93583,100.48574 c -0.68994,10e-4 -1.36696,0.003 -2.0625,0.0313 -2.70104,0.10974 -5.45918,0.44697 -8.125,0.96875 -2.71302,0.53102 -5.335,1.25344 -7.8125,2.21875 -2.62602,1.02318 -5.05843,2.29262 -7.1875,3.8125 -2.29879,1.64104 -4.25791,3.58144 -5.6875,5.8125 l -5.96875,6.03125 -4.40625,4.4375 0,14.84375 c 2.81035,0.77572 5.6029,1.80339 8.34375,3.0625 2.82082,1.29584 5.56111,2.8268 8.1875,4.5625 2.61844,1.73046 5.13294,3.65407 7.4375,5.75 2.34507,2.13278 4.48076,4.4386 6.375,6.875 1.95921,2.51998 3.62991,5.20607 4.96875,7.96875 1.38988,2.86799 2.43291,5.83716 3,8.875 0.59956,3.21178 0.62687,6.50141 0.1875,9.8125 -0.42336,3.19047 -1.27829,6.40057 -2.5,9.53125 -1.17656,3.01497 -2.7003,5.95753 -4.46875,8.78125 -1.73948,2.77748 -3.73395,5.44167 -5.90625,7.90625 -2.20139,2.49759 -4.59127,4.79859 -7.09375,6.84375 -2.62597,2.14607 -5.36161,4.00102 -8.15625,5.5 -2.80979,1.50711 -5.88688,2.67062 -9.125,3.46875 -3.12168,0.76945 -6.39092,1.19374 -9.6875,1.3125 -3.25551,0.11728 -6.56749,-0.0843 -9.78125,-0.59375 -3.26099,-0.51695 -6.43835,-1.34583 -9.4375,-2.5 -3.10996,-1.1968 -6.00674,-2.72066 -8.59375,-4.59375 -2.25783,-1.63475 -4.42226,-3.53899 -6.46875,-5.65625 -1.96039,-2.02819 -3.80871,-4.25673 -5.5,-6.625 -1.65802,-2.32169 -3.17061,-4.79087 -4.5,-7.34375 -1.33121,-2.55637 -2.47411,-5.21306 -3.40625,-7.90625 -0.95102,-2.74773 -1.6938,-5.52232 -2.15625,-8.3125 -0.47775,-2.88226 -0.68629,-5.77572 -0.5625,-8.59375 0.12763,-2.90546 0.61377,-5.75171 1.46875,-8.46875 0.85361,-2.71268 2.10036,-5.31756 3.65625,-7.8125 1.4992,-2.40403 3.29121,-4.70896 5.3125,-6.84375 1.95861,-2.06857 4.13782,-3.99511 6.46875,-5.75 2.29698,-1.72932 4.73457,-3.28929 7.28125,-4.65625 2.55857,-1.37335 5.20798,-2.55041 7.90625,-3.5 2.67398,-0.94105 5.39253,-1.62693 8.09375,-2.09375 l 0,-18.71875 -2.15625,-2.40625 -6.625,-7.4375 c -2.14646,-2.40445 -5.0208,-4.11842 -8.34375,-5.28125 -2.96157,-1.03637 -6.29081,-1.63098 -9.78125,-1.875 -3.22872,-0.22572 -6.60237,-0.1455 -9.96875,0.15625 -3.34282,0.29963 -6.693773,0.82238 -9.875003,1.5 -3.44997,0.73486 -6.697,1.65045 -9.59375,2.65625 -2.84845,0.98904 -5.65768,2.20295 -8.34375,3.65625 -2.67267,1.44604 -5.22611,3.11682 -7.625,4.96875 -2.42215,1.86988 -4.69119,3.9275 -6.71875,6.15625 -2.06615,2.27118 -3.90277,4.72652 -5.4375,7.3125 -1.56195,2.63184 -2.80431,5.41563 -3.6875,8.3125 -0.93372,3.06263 -1.53394,6.04056 -1.78125,9 -0.25478,3.04903 -0.14401,6.07291 0.34375,9.15625 0.4569,2.88823 1.25453,5.83264 2.375,8.875 0.99214,2.69392 2.26025,5.47154 3.78125,8.375 1.33222,2.5431 2.84998,5.1737 4.59375,7.9375 1.54673,2.4515 3.41274,5.07627 5.5,7.8125 1.83422,2.40452 3.8519,4.90365 6,7.4375 2.00239,2.36198 4.11867,4.75301 6.3125,7.15625 2.1222,2.32479 4.30214,4.66851 6.53125,6.96875 2.22224,2.29314 4.49198,4.54287 6.75,6.75 2.3191,2.26682 4.62463,4.48346 6.906253,6.59375 2.42807,2.24576 4.82847,4.38444 7.125,6.375 2.58303,2.2389 5.05061,4.28567 7.34375,6.09375 l 7.65625,6.0625 7.6875,6.03125 7.6875,6.0625 7.6875,6.0625 7.65625,6.03125 6.53125,-5.71875 6.5,-5.75 6.53125,-5.75 6.5,-5.75 6.5,-5.75 c 2.03596,-1.79553 4.30472,-3.90988 6.6875,-6.25 2.05524,-2.01844 4.20075,-4.19894 6.40625,-6.5 2.05199,-2.14092 4.15133,-4.3655 6.25,-6.65625 2.04426,-2.23138 4.0805,-4.52455 6.09375,-6.8125 2.03652,-2.31439 4.04043,-4.62091 5.96875,-6.90625 2.03272,-2.40906 3.98779,-4.78552 5.8125,-7.0625 2.04254,-2.54881 3.93147,-4.97144 5.59375,-7.21875 2.12244,-2.86942 3.88824,-5.45122 5.15625,-7.5625 1.99688,-3.32487 3.70673,-5.98094 5.1875,-8.28125 2.08786,-3.24339 3.71953,-5.77969 4.96875,-8.4375 1.26271,-2.6865 2.15009,-5.51103 2.78125,-9.34375 0.44523,-2.70368 0.94406,-5.56471 1.3125,-8.53125 0.35123,-2.82795 0.56356,-5.75783 0.5,-8.65625 -0.0632,-2.88086 -0.41411,-5.74266 -1.21875,-8.53125 -0.77607,-2.68962 -1.95075,-5.29369 -3.71875,-7.75 -1.58057,-2.19591 -3.55272,-4.35012 -5.78125,-6.40625 -2.05068,-1.89204 -4.31482,-3.71476 -6.75,-5.375 -2.36038,-1.60924 -4.89269,-3.0841 -7.46875,-4.375 -2.60838,-1.30709 -5.28706,-2.40269 -7.96875,-3.28125 -2.83247,-0.92795 -5.66259,-1.6055 -8.40625,-1.9375 -1.96079,-0.23727 -3.9927,-0.34746 -6.0625,-0.34375 z"
       inkscape:connector-curvature="0" />
  </g>
  <g
     inkscape:label="Capa"
     id="layer2"
     inkscape:groupmode="layer"
     transform="translate(0,-30.853486)" />
</svg>
