<?xml version="1.0" encoding="UTF-8" standalone="no"?>
<!-- Created with Inkscape (http://www.inkscape.org/) -->

<svg
   xmlns:dc="http://purl.org/dc/elements/1.1/"
   xmlns:cc="http://creativecommons.org/ns#"
   xmlns:rdf="http://www.w3.org/1999/02/22-rdf-syntax-ns#"
   xmlns:svg="http://www.w3.org/2000/svg"
   xmlns="http://www.w3.org/2000/svg"
   xmlns:sodipodi="http://sodipodi.sourceforge.net/DTD/sodipodi-0.dtd"
   xmlns:inkscape="http://www.inkscape.org/namespaces/inkscape"
   sodipodi:docname="corazon.svg"
   inkscape:version="0.48.4 r9939"
   version="1.1"
   id="svg3097"
   height="283.46457"
   width="318.89764">
  <sodipodi:namedview
     id="base"
     pagecolor="#ffffff"
     bordercolor="#666666"
     borderopacity="1.0"
     inkscape:pageopacity="0.0"
     inkscape:pageshadow="2"
     inkscape:zoom="0.80378487"
     inkscape:cx="270.8522"
     inkscape:cy="154.39884"
     inkscape:document-units="px"
     inkscape:current-layer="layer1"
     showgrid="false"
     inkscape:window-width="1024"
     inkscape:window-height="549"
     inkscape:window-x="0"
     inkscape:window-y="30"
     inkscape:window-maximized="1"
     fit-margin-top="0"
     fit-margin-left="0"
     fit-margin-right="0"
     fit-margin-bottom="0"
     showguides="false"
     units="mm" />
  <defs
     id="defs3099">
    <symbol
       id="*Paper_Space0" />
    <symbol
       id="*Paper_Space" />
    <symbol
       id="*Model_Space" />
    <marker
       refY="0"
       refX="0"
       style="overflow:visible"
       id="DistanceX"
       orient="auto">
      <path
         inkscape:connector-curvature="0"
         style="stroke:#000000;stroke-width:0.5"
         d="M 3,-3 -3,3 M 0,-5 0,5"
         id="path3184" />
    </marker>
  </defs>
  <metadata
     id="metadata3102">
    <rdf:RDF>
      <cc:Work
         rdf:about="">
        <dc:format>image/svg+xml</dc:format>
        <dc:type
           rdf:resource="http://purl.org/dc/dcmitype/StillImage" />
        <dc:title />
      </cc:Work>
    </rdf:RDF>
  </metadata>
  <g
     transform="translate(-6.4228571,-22.685286)"
     id="layer1"
     inkscape:groupmode="layer"
     inkscape:label="Layer 1">
    <path
       style="fill:none;stroke:#000000;stroke-width:1px;stroke-linecap:butt;stroke-linejoin:miter;stroke-opacity:1"
       d="m 164.92653,118.46174 c 0,0 -2.98061,-3.33886 -6.63507,-7.43255 -2.13501,-2.39162 -4.50002,-5.04089 -6.63503,-7.43251 -3.65448,-4.093715 -6.63512,-7.432607 -6.63512,-7.432607 -2.14646,-2.404451 -5.01617,-4.123557 -8.33912,-5.286388 -2.96157,-1.036373 -6.28316,-1.630883 -9.7736,-1.874904 -3.22872,-0.225724 -6.60192,-0.15155 -9.9683,0.150198 -3.34282,0.299635 -6.67892,0.823671 -9.86015,1.501292 -3.44997,0.734864 -6.7178,1.650359 -9.614548,2.656162 -2.84845,0.989036 -5.64432,2.223809 -8.33039,3.677106 -2.67267,1.446041 -5.23663,3.108421 -7.63552,4.960351 -2.42215,1.86988 -4.676019,3.933 -6.703574,6.16175 -2.066153,2.27118 -3.897296,4.71436 -5.432029,7.30034 -1.561949,2.63184 -2.816882,5.41158 -3.700072,8.30845 -0.933728,3.06263 -1.527477,6.0403 -1.774779,8.99974 -0.254788,3.04903 -0.141837,6.07872 0.345927,9.16206 0.456898,2.88822 1.242673,5.82352 2.363139,8.86589 0.992136,2.69391 2.246686,5.47178 3.767687,8.37524 1.332226,2.5431 2.868867,5.18257 4.612636,7.94637 1.546729,2.4515 3.399405,5.07657 5.486665,7.8128 1.83422,2.40452 3.8496,4.89488 5.9977,7.42873 2.00239,2.36198 4.12012,4.76175 6.31395,7.16499 2.1222,2.32478 4.31561,4.65282 6.54472,6.95306 2.222238,2.29314 4.479958,4.55866 6.737978,6.76579 2.3191,2.26682 4.63851,4.47204 6.92013,6.58233 2.42807,2.24576 4.81333,4.38401 7.10986,6.37457 2.58303,2.2389 5.05379,4.29098 7.34693,6.09906 0,0 3.16518,2.49567 7.67785,6.05381 2.29139,1.8067 4.9302,3.88734 7.67846,6.05427 2.52834,1.99354 5.14931,4.06012 7.67763,6.05364 2.74785,2.16661 5.38625,4.24693 7.67735,6.0534 4.51284,3.55827 7.67817,6.05406 7.67817,6.05406 0,0 2.68522,-2.36811 6.51359,-5.74438 1.94392,-1.71436 4.18258,-3.68865 6.51409,-5.74483 2.14495,-1.89164 4.36848,-3.85259 6.5134,-5.74421 2.33159,-2.05625 4.5703,-4.03058 6.51422,-5.74493 3.82795,-3.3759 6.5128,-5.74369 6.5128,-5.74369 2.03596,-1.79553 4.28423,-3.90757 6.66701,-6.24769 2.05524,-2.01844 4.21056,-4.20657 6.41606,-6.50763 2.05199,-2.14092 4.14742,-4.37961 6.24609,-6.67036 2.04426,-2.23138 4.09159,-4.51215 6.10484,-6.8001 2.03652,-2.31439 4.03817,-4.63611 5.96649,-6.92145 2.03272,-2.40906 3.98395,-4.77768 5.80866,-7.05466 2.04254,-2.54881 3.92654,-4.98278 5.58882,-7.23009 2.12244,-2.86942 3.88341,-5.43452 5.15142,-7.5458 1.99688,-3.32488 3.71614,-5.98601 5.19691,-8.28631 2.08786,-3.2434 3.70157,-5.76944 4.95079,-8.42725 1.26271,-2.68651 2.15302,-5.50766 2.78418,-9.34037 0.44523,-2.70369 0.94926,-5.58624 1.3177,-8.55278 0.35123,-2.82795 0.57926,-5.73223 0.5157,-8.63065 -0.0632,-2.88086 -0.41441,-5.75593 -1.21905,-8.54452 -0.77607,-2.68962 -1.97394,-5.29879 -3.74194,-7.7551 -1.58057,-2.19591 -3.5356,-4.35681 -5.76413,-6.41294 -2.05068,-1.89204 -4.33294,-3.695355 -6.76812,-5.355596 -2.36038,-1.609245 -4.86442,-3.084067 -7.44048,-4.374962 -2.60838,-1.307088 -5.2906,-2.425607 -7.97229,-3.304167 -2.83247,-0.927957 -5.66435,-1.588215 -8.40801,-1.920218 -2.61438,-0.31636 -5.3647,-0.419989 -8.14687,-0.306948 -2.70104,0.109744 -5.43209,0.423705 -8.09791,0.945486 -2.71302,0.531021 -5.35849,1.277287 -7.83599,2.242597 -2.62602,1.023175 -5.06334,2.292441 -7.19241,3.812323 -2.29879,1.641041 -4.23822,3.574246 -5.66781,5.805305 0,0 -2.68443,2.70273 -5.97574,6.01647 -1.92286,1.93596 -4.05285,4.08047 -5.97571,6.01644 -3.29133,3.31376 -5.97579,6.01651 -5.97579,6.01651"
       id="path10325"
       inkscape:connector-curvature="0"
       sodipodi:nodetypes="cszzzscszzzzsc" />
    <path
       style="fill:none;stroke:#000000;stroke-width:1px;stroke-linecap:butt;stroke-linejoin:miter;stroke-opacity:1"
       d="m 115.09573,155.39074 c -0.85498,2.71704 -1.32397,5.55879 -1.4516,8.46426 -0.12379,2.81803 0.0735,5.69601 0.55125,8.57827 0.46245,2.79018 1.18766,5.58437 2.13868,8.3321 0.93214,2.69319 2.08121,5.34174 3.41242,7.89811 1.32939,2.55288 2.84041,5.01383 4.49843,7.33552 1.69129,2.36827 3.53552,4.59163 5.49591,6.61983 2.04649,2.11726 4.21957,4.02185 6.4774,5.6566 2.58701,1.87309 5.49694,3.4103 8.6069,4.6071 2.99915,1.15417 6.18434,1.99175 9.44533,2.5087 3.21376,0.50945 6.50115,0.70748 9.75666,0.5902 3.29658,-0.11876 6.56048,-0.56084 9.68216,-1.33028 3.23812,-0.79813 6.32322,-1.9485 9.13301,-3.45561 2.79464,-1.49898 5.54664,-3.35963 8.17261,-5.50569 2.50248,-2.04516 4.89051,-4.34953 7.0919,-6.84712 2.1723,-2.46458 4.16287,-5.11731 5.90235,-7.89479 1.76845,-2.82372 3.27738,-5.77639 4.45394,-8.79136 1.22171,-3.13068 2.08503,-6.32855 2.50839,-9.51901 0.43937,-3.3111 0.40487,-6.61423 -0.19469,-9.826 -0.56709,-3.03784 -1.58484,-6.0141 -2.97472,-8.88208 -1.33884,-2.76268 -3.02297,-5.42487 -4.98218,-7.94485 -1.89424,-2.4364 -4.04562,-4.73985 -6.39069,-6.87263 -2.30456,-2.09593 -4.79617,-4.02703 -7.41461,-5.75749 -2.62639,-1.7357 -5.38038,-3.26955 -8.2012,-4.56539 -2.89241,-1.32874 -5.85508,-2.40724 -8.82251,-3.19655 -3.10682,-0.82639 -6.21885,-1.33578 -9.2609,-1.48347 -2.81174,-0.13651 -5.711,0.0565 -8.62866,0.54331 -2.7944,0.46625 -5.60568,1.20202 -8.37309,2.17595 -2.69827,0.94959 -5.35484,2.12559 -7.91341,3.49894 -2.54668,1.36696 -4.99627,2.92943 -7.29325,4.65875 -2.33093,1.75489 -4.50471,3.68159 -6.46332,5.75016 -2.02129,2.13478 -3.81342,4.42064 -5.31262,6.82468 -1.55589,2.49494 -2.79628,5.11715 -3.64989,7.82984 0,0 0,0 0,0"
       id="path11366"
       inkscape:connector-curvature="0"
       sodipodi:nodetypes="aaaaaa" />
    <path
       style="fill:none;stroke:#000000;stroke-width:1px;stroke-linecap:butt;stroke-linejoin:miter;stroke-opacity:1"
       d="m 125.64487,204.20556 c 0,0 1.85524,-3.33943 4.74544,-8.54179 1.37643,-2.47758 2.9876,-5.37768 4.7449,-8.54082 1.49421,-2.68959 3.09408,-5.56935 4.74514,-8.54125 1.55149,-2.79268 3.14818,-5.66672 4.74487,-8.54076 1.59671,-2.87408 3.19342,-5.74817 4.74494,-8.5409 1.65121,-2.97217 3.25122,-5.8522 4.74557,-8.54203 1.7575,-3.16349 3.36883,-6.06388 4.74537,-8.54166 2.89007,-5.20212 4.7452,-8.54136 4.7452,-8.54136 0,0 1.74107,3.33943 4.45341,8.54179 1.29173,2.47758 2.80375,5.37768 4.45291,8.54082 1.40226,2.68959 2.90368,5.56935 4.45313,8.54125 1.45602,2.79268 2.95445,5.66672 4.45288,8.54076 1.49845,2.87408 2.99691,5.74817 4.45295,8.5409 1.54959,2.97217 3.05115,5.8522 4.45354,8.54203 1.64934,3.16349 3.16151,6.06388 4.45334,8.54166 2.71222,5.20212 4.45319,8.54136 4.45319,8.54136"
       id="path11368"
       inkscape:connector-curvature="0"
       sodipodi:nodetypes="ccc" />
    <path
       style="fill:none;stroke:#000000;stroke-width:1px;stroke-linecap:butt;stroke-linejoin:miter;stroke-opacity:1"
       d="m 185.50714,170.04027 c 0,0 -3.80403,0 -9.2275,0 -2.75387,0 -5.92528,0 -9.22823,0 -3.03864,0 -6.18862,0 -9.22724,0 -3.30245,0 -6.47338,0 -9.22689,0 -5.42368,0 -9.22789,0 -9.22789,0"
       id="path11370"
       inkscape:connector-curvature="0"
       sodipodi:nodetypes="cc" />
  </g>
  <g
     inkscape:label="Capa"
     id="layer2"
     inkscape:groupmode="layer"
     transform="translate(0,4.5795935)" />
</svg>
