<?xml version="1.0" encoding="UTF-8" standalone="no"?>
<!-- Created with Inkscape (http://www.inkscape.org/) -->

<svg
   xmlns:dc="http://purl.org/dc/elements/1.1/"
   xmlns:cc="http://creativecommons.org/ns#"
   xmlns:rdf="http://www.w3.org/1999/02/22-rdf-syntax-ns#"
   xmlns:svg="http://www.w3.org/2000/svg"
   xmlns="http://www.w3.org/2000/svg"
   xmlns:sodipodi="http://sodipodi.sourceforge.net/DTD/sodipodi-0.dtd"
   xmlns:inkscape="http://www.inkscape.org/namespaces/inkscape"
   width="318.89764"
   height="283.46457"
   id="svg3097"
   version="1.1"
   inkscape:version="0.48.4 r9939"
   sodipodi:docname="texto.gcode">
  <sodipodi:namedview
     id="base"
     pagecolor="#ffffff"
     bordercolor="#666666"
     borderopacity="1.0"
     inkscape:pageopacity="0.0"
     inkscape:pageshadow="2"
     inkscape:zoom="0.97819102"
     inkscape:cx="122.00139"
     inkscape:cy="161.285"
     inkscape:document-units="px"
     inkscape:current-layer="g4309"
     showgrid="false"
     inkscape:window-width="597"
     inkscape:window-height="497"
     inkscape:window-x="46"
     inkscape:window-y="63"
     inkscape:window-maximized="0"
     fit-margin-top="0"
     fit-margin-left="0"
     fit-margin-right="0"
     fit-margin-bottom="0"
     showguides="false"
     units="mm"
     borderlayer="true"
     inkscape:showpageshadow="false" />
  <title
     id="title2992">TinyCNC</title>
  <defs
     id="defs3099">
    <symbol
       id="*Paper_Space0" />
    <symbol
       id="*Paper_Space" />
    <symbol
       id="*Model_Space" />
    <marker
       orient="auto"
       id="DistanceX"
       style="overflow:visible"
       refX="0"
       refY="0" />
  </defs>
  <metadata
     id="metadata3102">
    <rdf:RDF>
      <cc:Work
         rdf:about="">
        <dc:format>image/svg+xml</dc:format>
        <dc:type
           rdf:resource="http://purl.org/dc/dcmitype/StillImage" />
        <dc:title>TinyCNC</dc:title>
        <cc:license
           rdf:resource="http://creativecommons.org/licenses/by/3.0/" />
      </cc:Work>
      <cc:License
         rdf:about="http://creativecommons.org/licenses/by/3.0/">
        <cc:permits
           rdf:resource="http://creativecommons.org/ns#Reproduction" />
        <cc:permits
           rdf:resource="http://creativecommons.org/ns#Distribution" />
        <cc:requires
           rdf:resource="http://creativecommons.org/ns#Notice" />
        <cc:requires
           rdf:resource="http://creativecommons.org/ns#Attribution" />
        <cc:permits
           rdf:resource="http://creativecommons.org/ns#DerivativeWorks" />
      </cc:License>
    </rdf:RDF>
  </metadata>
  <g
     style="display:inline"
     inkscape:label="Layer 1"
     inkscape:groupmode="layer"
     id="layer1"
     transform="translate(-6.4228571,-22.685286)" />
  <g
     style="display:inline"
     inkscape:groupmode="layer"
     inkscape:label="1 - #ff0000"
     id="g4139">
    <g
       id="g4309"
       transform="translate(25.405777,36.946759)"
       inkscape:label="Hershey Text">
      <path
         style="font-size:medium;font-style:normal;font-variant:normal;font-weight:normal;font-stretch:normal;text-indent:0;text-align:start;text-decoration:none;line-height:normal;letter-spacing:normal;word-spacing:normal;text-transform:none;direction:ltr;block-progression:tb;writing-mode:lr-tb;text-anchor:start;baseline-shift:baseline;color:#000000;fill:#000000;fill-opacity:1;stroke:none;stroke-width:1;marker:none;visibility:visible;display:inline;overflow:visible;enable-background:accumulate;font-family:Sans;-inkscape-font-specification:Sans"
         d="M 4.46875,-12.1875 4,-12 l -0.5,0 0,21 1,0 0,-18.28125 L 11.53125,9.1875 12,9 12.46875,9.1875 19.5,-9.28125 19.5,9 l 1,0 0,-21 -0.5,0 -0.46875,-0.1875 L 12,7.59375 4.46875,-12.1875 z"
         id="path4311"
         inkscape:connector-curvature="0" />
      <path
         style="font-size:medium;font-style:normal;font-variant:normal;font-weight:normal;font-stretch:normal;text-indent:0;text-align:start;text-decoration:none;line-height:normal;letter-spacing:normal;word-spacing:normal;text-transform:none;direction:ltr;block-progression:tb;writing-mode:lr-tb;text-anchor:start;baseline-shift:baseline;color:#000000;fill:#000000;fill-opacity:1;stroke:none;stroke-width:1;marker:none;visibility:visible;display:inline;overflow:visible;enable-background:accumulate;font-family:Sans;-inkscape-font-specification:Sans"
         d="m 31.875,-5.5 -0.09375,0.0625 -2,1 -0.0625,0.03125 -0.0625,0.0625 -2,2 -0.09375,0.0625 -0.03125,0.125 -1,3 L 26.5,0.90625 26.5,1 l 0,2 0,0.09375 0.03125,0.0625 1,3 0.03125,0.125 0.09375,0.0625 2,2 0.0625,0.0625 0.0625,0.03125 2,1 L 31.875,9.5 32,9.5 l 3,0 0.125,0 0.09375,-0.0625 2,-1 0.0625,-0.03125 0.0625,-0.0625 L 38.5,7.1875 38.5,9 l 1,0 0,-14 -1,0 0,1.8125 -1.15625,-1.15625 -0.0625,-0.0625 -0.0625,-0.03125 -2,-1 L 35.125,-5.5 35,-5.5 l -3,0 -0.125,0 z m 0.21875,1 2.8125,0 1.8125,0.90625 0.0625,0.03125 1.71875,1.75 0,7.625 -1.71875,1.75 -0.0625,0.03125 L 34.90625,8.5 32.09375,8.5 30.28125,7.59375 30.21875,7.5625 28.4375,5.75 27.5,3 l 0,-0.0625 0,-1.875 0,-0.0625 0.9375,-2.75 1.78125,-1.8125 0.0625,-0.03125 1.8125,-0.90625 z"
         id="path4313"
         inkscape:connector-curvature="0" />
      <path
         style="font-size:medium;font-style:normal;font-variant:normal;font-weight:normal;font-stretch:normal;text-indent:0;text-align:start;text-decoration:none;line-height:normal;letter-spacing:normal;word-spacing:normal;text-transform:none;direction:ltr;block-progression:tb;writing-mode:lr-tb;text-anchor:start;baseline-shift:baseline;color:#000000;fill:#000000;fill-opacity:1;stroke:none;stroke-width:1;marker:none;visibility:visible;display:inline;overflow:visible;enable-background:accumulate;font-family:Sans;-inkscape-font-specification:Sans"
         d="m 50.875,-5.5 -0.09375,0.0625 -2,1 -0.0625,0.03125 -0.0625,0.0625 -2,2 -0.09375,0.0625 -0.03125,0.125 -1,3 L 45.5,0.90625 45.5,1 l 0,2 0,0.09375 0.03125,0.0625 1,3 0.03125,0.125 0.09375,0.0625 2,2 0.0625,0.0625 0.0625,0.03125 2,1 L 50.875,9.5 51,9.5 l 3,0 0.125,0 0.09375,-0.0625 2,-1 0.0625,-0.03125 0.0625,-0.0625 L 57.5,7.1875 57.5,16 l 1,0 0,-21 -1,0 0,1.8125 -1.15625,-1.15625 -0.0625,-0.0625 -0.0625,-0.03125 -2,-1 L 54.125,-5.5 54,-5.5 l -3,0 -0.125,0 z m 0.21875,1 2.8125,0 1.8125,0.90625 0.0625,0.03125 1.71875,1.75 0,7.625 -1.71875,1.75 -0.0625,0.03125 L 53.90625,8.5 51.09375,8.5 49.28125,7.59375 49.21875,7.5625 47.4375,5.75 46.5,3 l 0,-0.0625 0,-1.875 0,-0.0625 0.9375,-2.75 1.78125,-1.8125 0.0625,-0.03125 1.8125,-0.90625 z"
         id="path4315"
         inkscape:connector-curvature="0" />
      <path
         style="font-size:medium;font-style:normal;font-variant:normal;font-weight:normal;font-stretch:normal;text-indent:0;text-align:start;text-decoration:none;line-height:normal;letter-spacing:normal;word-spacing:normal;text-transform:none;direction:ltr;block-progression:tb;writing-mode:lr-tb;text-anchor:start;baseline-shift:baseline;color:#000000;fill:#000000;fill-opacity:1;stroke:none;stroke-width:1;marker:none;visibility:visible;display:inline;overflow:visible;enable-background:accumulate;font-family:Sans;-inkscape-font-specification:Sans"
         d="m 65.5,-5 0,10 0,0.09375 0.03125,0.0625 1,3 0.0625,0.1875 0.1875,0.09375 2,1 L 68.875,9.5 69,9.5 l 3,0 0.125,0 0.09375,-0.0625 2,-1 0.0625,-0.03125 0.0625,-0.0625 L 76.5,6.1875 76.5,9 l 1,0 0,-14 -1,0 0,9.8125 -2.71875,2.75 -0.0625,0.03125 L 71.90625,8.5 69.09375,8.5 67.40625,7.65625 66.5,5 l 0,-0.0625 0,-9.9375 -1,0 z"
         id="path4317"
         inkscape:connector-curvature="0" />
      <path
         style="font-size:medium;font-style:normal;font-variant:normal;font-weight:normal;font-stretch:normal;text-indent:0;text-align:start;text-decoration:none;line-height:normal;letter-spacing:normal;word-spacing:normal;text-transform:none;direction:ltr;block-progression:tb;writing-mode:lr-tb;text-anchor:start;baseline-shift:baseline;color:#000000;fill:#000000;fill-opacity:1;stroke:none;stroke-width:1;marker:none;visibility:visible;display:inline;overflow:visible;enable-background:accumulate;font-family:Sans;-inkscape-font-specification:Sans"
         d="m 85,-13.71875 -0.34375,0.375 -1,1 L 84,-12 l -0.34375,0.34375 1,1 0.34375,0.375 0.34375,-0.375 1,-1 0.375,-0.34375 -0.375,-0.34375 -1,-1 L 85,-13.71875 z M 85,-12.3125 85.3125,-12 85,-11.6875 84.6875,-12 85,-12.3125 z M 84.5,-5 l 0,14 1,0 0,-14 -1,0 z"
         id="path4319"
         inkscape:connector-curvature="0" />
      <path
         style="font-size:medium;font-style:normal;font-variant:normal;font-weight:normal;font-stretch:normal;text-indent:0;text-align:start;text-decoration:none;line-height:normal;letter-spacing:normal;word-spacing:normal;text-transform:none;direction:ltr;block-progression:tb;writing-mode:lr-tb;text-anchor:start;baseline-shift:baseline;color:#000000;fill:#000000;fill-opacity:1;stroke:none;stroke-width:1;marker:none;visibility:visible;display:inline;overflow:visible;enable-background:accumulate;font-family:Sans;-inkscape-font-specification:Sans"
         d="m 97.875,-5.5 -0.09375,0.0625 -2,1 -0.0625,0.03125 -0.0625,0.0625 L 93.5,-2.1875 93.5,-5 l -1,0 0,14 1,0 0,-9.8125 2.71875,-2.75 0.0625,-0.03125 1.8125,-0.90625 2.8125,0 1.6875,0.84375 L 103.5,-1 l 0,0.0625 0,9.9375 1,0 0,-10 0,-0.09375 -0.0313,-0.0625 -1,-3 -0.0625,-0.1875 -0.1875,-0.09375 -2,-1 -0.0937,-0.0625 -0.125,0 -3,0 -0.125,0 z"
         id="path4321"
         inkscape:connector-curvature="0" />
      <path
         style="font-size:medium;font-style:normal;font-variant:normal;font-weight:normal;font-stretch:normal;text-indent:0;text-align:start;text-decoration:none;line-height:normal;letter-spacing:normal;word-spacing:normal;text-transform:none;direction:ltr;block-progression:tb;writing-mode:lr-tb;text-anchor:start;baseline-shift:baseline;color:#000000;fill:#000000;fill-opacity:1;stroke:none;stroke-width:1;marker:none;visibility:visible;display:inline;overflow:visible;enable-background:accumulate;font-family:Sans;-inkscape-font-specification:Sans"
         d="m 115.875,-5.5 -0.0937,0.0625 -2,1 -0.0625,0.03125 -0.0625,0.0625 -2,2 -0.0937,0.0625 -0.0313,0.125 -1,3 -0.0313,0.0625 0,0.09375 0,2 0,0.09375 0.0313,0.0625 1,3 0.0313,0.125 0.0937,0.0625 2,2 0.0625,0.0625 0.0625,0.03125 2,1 0.0937,0.0625 0.125,0 3,0 0.125,0 0.0937,-0.0625 2,-1 0.0625,-0.03125 0.0625,-0.0625 L 122.5,7.1875 122.5,9 l 1,0 0,-14 -1,0 0,1.8125 -1.15625,-1.15625 -0.0625,-0.0625 -0.0625,-0.03125 -2,-1 -0.0937,-0.0625 -0.125,0 -3,0 -0.125,0 z m 0.21875,1 2.8125,0 1.8125,0.90625 0.0625,0.03125 1.71875,1.75 0,7.625 -1.71875,1.75 -0.0625,0.03125 -1.8125,0.90625 -2.8125,0 -1.8125,-0.90625 L 114.21875,7.5625 112.4375,5.75 111.5,3 l 0,-0.0625 0,-1.875 0,-0.0625 0.9375,-2.75 1.78125,-1.8125 0.0625,-0.03125 1.8125,-0.90625 z"
         id="path4323"
         inkscape:connector-curvature="0" />
      <path
         style="font-size:medium;font-style:normal;font-variant:normal;font-weight:normal;font-stretch:normal;text-indent:0;text-align:start;text-decoration:none;line-height:normal;letter-spacing:normal;word-spacing:normal;text-transform:none;direction:ltr;block-progression:tb;writing-mode:lr-tb;text-anchor:start;baseline-shift:baseline;color:#000000;fill:#000000;fill-opacity:1;stroke:none;stroke-width:1;marker:none;visibility:visible;display:inline;overflow:visible;enable-background:accumulate;font-family:Sans;-inkscape-font-specification:Sans"
         d="m 133.90625,-5.5 -0.0625,0.03125 -3,1 -0.1875,0.0625 -0.0937,0.1875 -1,2 -0.125,0.21875 0.125,0.21875 1,2 0.0625,0.15625 0.15625,0.0625 2,1 0.0625,0.03125 0.0625,0.03125 5,1 1.71875,0.875 0.875,1.71875 0,0.8125 -0.84375,1.6875 L 137,8.5 l -0.0625,0 -2.875,0 -0.0625,0 -2.65625,-0.90625 -0.90625,-1.8125 -0.875,0.4375 1,2 0.0937,0.1875 0.1875,0.0625 3,1 0.0625,0.03125 0.0937,0 3,0 0.0937,0 0.0625,-0.03125 3,-1 0.1875,-0.0625 0.0937,-0.1875 1,-2 L 141.5,6.125 141.5,6 l 0,-1 0,-0.125 -0.0625,-0.09375 -1,-2 -0.0625,-0.15625 -0.15625,-0.0625 -2,-1 -0.0625,-0.03125 -0.0625,-0.03125 -5,-1 L 131.375,-0.375 130.5625,-2 131.34375,-3.59375 134,-4.5 l 0.0625,0 2.875,0 0.0625,0 2.65625,0.90625 0.90625,1.8125 0.875,-0.4375 -1,-2 -0.0937,-0.1875 -0.1875,-0.0625 -3,-1 -0.0625,-0.03125 -0.0937,0 -3,0 -0.0937,0 z"
         id="path4325"
         inkscape:connector-curvature="0" />
      <path
         id="path4327"
         transform="translate(152,0)"
         style="fill:none;stroke:#000000"
         d=""
         inkscape:connector-curvature="0" />
      <path
         style="font-size:medium;font-style:normal;font-variant:normal;font-weight:normal;font-stretch:normal;text-indent:0;text-align:start;text-decoration:none;line-height:normal;letter-spacing:normal;word-spacing:normal;text-transform:none;direction:ltr;block-progression:tb;writing-mode:lr-tb;text-anchor:start;baseline-shift:baseline;color:#000000;fill:#000000;fill-opacity:1;stroke:none;stroke-width:1;marker:none;visibility:visible;display:inline;overflow:visible;enable-background:accumulate;font-family:Sans;-inkscape-font-specification:Sans"
         d="m 163.5,-12 0,21 0.5,0 0,0.5 12,0 0,-1 -11.5,0 0,-20.5 -1,0 z"
         id="path4329"
         inkscape:connector-curvature="0" />
      <path
         style="font-size:medium;font-style:normal;font-variant:normal;font-weight:normal;font-stretch:normal;text-indent:0;text-align:start;text-decoration:none;line-height:normal;letter-spacing:normal;word-spacing:normal;text-transform:none;direction:ltr;block-progression:tb;writing-mode:lr-tb;text-anchor:start;baseline-shift:baseline;color:#000000;fill:#000000;fill-opacity:1;stroke:none;stroke-width:1;marker:none;visibility:visible;display:inline;overflow:visible;enable-background:accumulate;font-family:Sans;-inkscape-font-specification:Sans"
         d="m 181,-13.71875 -0.34375,0.375 -1,1 L 180,-12 l -0.34375,0.34375 1,1 0.34375,0.375 0.34375,-0.375 1,-1 0.375,-0.34375 -0.375,-0.34375 -1,-1 -0.34375,-0.375 z m 0,1.40625 L 181.3125,-12 181,-11.6875 180.6875,-12 181,-12.3125 z M 180.5,-5 l 0,14 1,0 0,-14 -1,0 z"
         id="path4331"
         inkscape:connector-curvature="0" />
      <path
         style="font-size:medium;font-style:normal;font-variant:normal;font-weight:normal;font-stretch:normal;text-indent:0;text-align:start;text-decoration:none;line-height:normal;letter-spacing:normal;word-spacing:normal;text-transform:none;direction:ltr;block-progression:tb;writing-mode:lr-tb;text-anchor:start;baseline-shift:baseline;color:#000000;fill:#000000;fill-opacity:1;stroke:none;stroke-width:1;marker:none;visibility:visible;display:inline;overflow:visible;enable-background:accumulate;font-family:Sans;-inkscape-font-specification:Sans"
         d="m 188.5,-12 0,21 1,0 0,-1.8125 1.15625,1.15625 0.0625,0.0625 0.0625,0.03125 2,1 0.0937,0.0625 0.125,0 3,0 0.125,0 0.0937,-0.0625 2,-1 0.0625,-0.03125 0.0625,-0.0625 2,-2 0.0937,-0.0625 0.0313,-0.125 1,-3 0.0313,-0.0625 0,-0.09375 0,-2 0,-0.09375 -0.0313,-0.0625 -1,-3 -0.0313,-0.125 -0.0937,-0.0625 -2,-2 -0.0625,-0.0625 -0.0625,-0.03125 -2,-1 -0.0937,-0.0625 -0.125,0 -3,0 -0.125,0 -0.0937,0.0625 -2,1 -0.0625,0.03125 -0.0625,0.0625 -1.15625,1.15625 0,-8.8125 -1,0 z m 4.59375,7.5 2.8125,0 1.8125,0.90625 0.0625,0.03125 1.78125,1.8125 0.9375,2.75 0,0.0625 0,1.875 0,0.0625 -0.9375,2.75 -1.78125,1.8125 -0.0625,0.03125 -1.8125,0.90625 -2.8125,0 -1.8125,-0.90625 -0.0625,-0.03125 -1.71875,-1.75 0,-7.625 1.71875,-1.75 0.0625,-0.03125 1.8125,-0.90625 z"
         id="path4333"
         inkscape:connector-curvature="0" />
      <path
         style="font-size:medium;font-style:normal;font-variant:normal;font-weight:normal;font-stretch:normal;text-indent:0;text-align:start;text-decoration:none;line-height:normal;letter-spacing:normal;word-spacing:normal;text-transform:none;direction:ltr;block-progression:tb;writing-mode:lr-tb;text-anchor:start;baseline-shift:baseline;color:#000000;fill:#000000;fill-opacity:1;stroke:none;stroke-width:1;marker:none;visibility:visible;display:inline;overflow:visible;enable-background:accumulate;font-family:Sans;-inkscape-font-specification:Sans"
         d="m 212.875,-5.5 -0.0937,0.0625 -2,1 -0.0625,0.03125 -0.0625,0.0625 -2,2 -0.0937,0.0625 -0.0313,0.125 -0.0313,0.09375 0,-2.9375 -1,0 0,14 1,0 0,-7.9375 0.9375,-2.8125 1.78125,-1.8125 0.0625,-0.03125 1.8125,-0.90625 2.90625,0 0,-1 -3,0 -0.125,0 z"
         id="path4335"
         inkscape:connector-curvature="0" />
      <path
         style="font-size:medium;font-style:normal;font-variant:normal;font-weight:normal;font-stretch:normal;text-indent:0;text-align:start;text-decoration:none;line-height:normal;letter-spacing:normal;word-spacing:normal;text-transform:none;direction:ltr;block-progression:tb;writing-mode:lr-tb;text-anchor:start;baseline-shift:baseline;color:#000000;fill:#000000;fill-opacity:1;stroke:none;stroke-width:1;marker:none;visibility:visible;display:inline;overflow:visible;enable-background:accumulate;font-family:Sans;-inkscape-font-specification:Sans"
         d="m 224.875,-5.5 -0.0937,0.0625 -2,1 -0.0625,0.03125 -0.0625,0.0625 -2,2 -0.0937,0.0625 -0.0313,0.125 -1,3 -0.0313,0.0625 0,0.09375 0,2 0,0.09375 0.0313,0.0625 1,3 0.0313,0.125 0.0937,0.0625 2,2 0.0625,0.0625 0.0625,0.03125 2,1 0.0937,0.0625 0.125,0 3,0 0.125,0 0.0937,-0.0625 2,-1 0.0625,-0.03125 0.0625,-0.0625 2,-2 -0.6875,-0.6875 -1.875,1.90625 -0.0625,0.03125 -1.8125,0.90625 -2.8125,0 -1.8125,-0.90625 L 223.21875,7.5625 221.4375,5.75 220.5,3 l 0,-0.0625 0,-1.4375 11.5,0 0.5,0 0,-0.5 0,-2 0,-0.125 -0.0625,-0.09375 -1,-2 -0.0313,-0.0625 -0.0625,-0.0625 -1,-1 -0.0625,-0.0625 -0.0625,-0.03125 -2,-1 -0.0937,-0.0625 -0.125,0 -3,0 -0.125,0 z m 0.21875,1 2.8125,0 1.8125,0.90625 0.0625,0.03125 0.78125,0.78125 0.0313,0.0625 0.90625,1.8125 0,1.40625 -10.8125,0 0.75,-2.25 1.78125,-1.8125 0.0625,-0.03125 1.8125,-0.90625 z"
         id="path4337"
         inkscape:connector-curvature="0" />
      <path
         style="font-size:medium;font-style:normal;font-variant:normal;font-weight:normal;font-stretch:normal;text-indent:0;text-align:start;text-decoration:none;line-height:normal;letter-spacing:normal;word-spacing:normal;text-transform:none;direction:ltr;block-progression:tb;writing-mode:lr-tb;text-anchor:start;baseline-shift:baseline;color:#000000;fill:#000000;fill-opacity:1;stroke:none;stroke-width:1;marker:none;visibility:visible;display:inline;overflow:visible;enable-background:accumulate;font-family:Sans;-inkscape-font-specification:Sans"
         d="m 241.90625,-5.5 -0.0625,0.03125 -3,1 -0.1875,0.0625 -0.0937,0.1875 -1,2 -0.125,0.21875 0.125,0.21875 1,2 0.0625,0.15625 0.15625,0.0625 2,1 0.0625,0.03125 0.0625,0.03125 5,1 1.71875,0.875 0.875,1.71875 0,0.8125 -0.84375,1.6875 L 245,8.5 l -0.0625,0 -2.875,0 -0.0625,0 -2.65625,-0.90625 -0.90625,-1.8125 -0.875,0.4375 1,2 0.0937,0.1875 0.1875,0.0625 3,1 0.0625,0.03125 0.0937,0 3,0 0.0937,0 0.0625,-0.03125 3,-1 0.1875,-0.0625 0.0937,-0.1875 1,-2 L 249.5,6.125 249.5,6 l 0,-1 0,-0.125 -0.0625,-0.09375 -1,-2 -0.0625,-0.15625 -0.15625,-0.0625 -2,-1 -0.0625,-0.03125 -0.0625,-0.03125 -5,-1 L 239.375,-0.375 238.5625,-2 239.34375,-3.59375 242,-4.5 l 0.0625,0 2.875,0 0.0625,0 2.65625,0.90625 0.90625,1.8125 0.875,-0.4375 -1,-2 -0.0937,-0.1875 -0.1875,-0.0625 -3,-1 -0.0625,-0.03125 -0.0937,0 -3,0 -0.0937,0 z"
         id="path4339"
         inkscape:connector-curvature="0" />
      <path
         style="font-size:medium;font-style:normal;font-variant:normal;font-weight:normal;font-stretch:normal;text-indent:0;text-align:start;text-decoration:none;line-height:normal;letter-spacing:normal;word-spacing:normal;text-transform:none;direction:ltr;block-progression:tb;writing-mode:lr-tb;text-anchor:start;baseline-shift:baseline;color:#000000;fill:#000000;fill-opacity:1;stroke:none;stroke-width:1;marker:none;visibility:visible;display:inline;overflow:visible;enable-background:accumulate;font-family:Sans;-inkscape-font-specification:Sans"
         d="m -7.71875,49.375 0,1 0.875,0 1.625,0.8125 0,18.34375 -1.6875,0.84375 -0.8125,0 0,1 6,0 0,-1 -0.84375,0 -1.65625,-0.8125 0,-16.53125 6,18 L 2.25,70.875 l 0.5,0.15625 6.03125,-18.09375 0,15.75 -0.5625,1.125 -1.125,0.5625 -0.8125,0 0,1 8,0 0,-1 -0.84375,0 -1.125,-0.5625 -0.53125,-1.0625 0,-16.78125 0.53125,-1.0625 1.0625,-0.53125 0.90625,0 0,-1 -5,0 0,0.5 -0.03125,0 L 8.78125,49.71875 3.25,66.25 -2.25,49.71875 -2.71875,49.875 l 0,-0.5 -5,0 z m 17.5,1 1,0 0,0.5 -1,0 0,-0.5 z M 2.6875,67.75 2.71875,67.875 2.25,69.25 1.84375,68 2.6875,67.75 z m 7.09375,2.125 1,0 0,0.5 -1,0 0,-0.5 z"
         id="path4397"
         inkscape:connector-curvature="0" />
      <path
         style="font-size:medium;font-style:normal;font-variant:normal;font-weight:normal;font-stretch:normal;text-indent:0;text-align:start;text-decoration:none;line-height:normal;letter-spacing:normal;word-spacing:normal;text-transform:none;direction:ltr;block-progression:tb;writing-mode:lr-tb;text-anchor:start;baseline-shift:baseline;color:#000000;fill:#000000;fill-opacity:1;stroke:none;stroke-width:1;marker:none;visibility:visible;display:inline;overflow:visible;enable-background:accumulate;font-family:Sans;-inkscape-font-specification:Sans"
         d="m 25.125,56.375 -3,1 -0.1875,0.0625 -0.09375,0.15625 -2,3 -0.03125,0.0625 -0.03125,0.0625 -1,3 0,0.0625 0,0.09375 0,2 0,0.0625 0,0.09375 1,3 0.0625,0.09375 0.0625,0.09375 1,1 0.0625,0.0625 0.0625,0.03125 2,1 0.125,0.0625 0.125,0 2,0 0.09375,0 0.125,-0.0625 2,-1 0.0625,-0.03125 0.0625,-0.0625 1,-1 0.0625,-0.0625 0.03125,-0.0625 1,-2 0,-0.03125 0.03125,-0.03125 0.03125,-0.09375 0,0.9375 0,0.09375 0.03125,0.125 1,2 0.03125,0.0625 0.0625,0.0625 1,1 0.15625,0.15625 0.21875,0 2,0 0.1875,0 0.15625,-0.15625 2,-2 0.0625,-0.0625 0.03125,-0.0625 1,-2 -0.90625,-0.46875 -0.96875,1.9375 -0.03125,0.0625 -1.78125,1.75 -1.53125,0 -0.71875,-0.71875 0,-1.78125 L 32.75,64 l 2,-7 0.1875,-0.625 -0.65625,0 -2,0 0,0.5 -0.5,-0.15625 -1.09375,3.8125 L 29.75,57.71875 29.6875,57.5 29.5,57.40625 l -2,-1 -0.125,-0.03125 -0.09375,0 -2,0 -0.09375,0 -0.0625,0 z m 0.34375,1 1.6875,0 1.6875,0.84375 0.9375,2.8125 0,2.6875 0,0.0625 -0.96875,2.84375 -0.03125,0.09375 -0.9375,1.84375 -0.03125,0.0625 -0.78125,0.78125 -0.0625,0.03125 -1.875,0.9375 -1.59375,0 -0.8125,-0.8125 -0.90625,-2.6875 0,-0.0625 0,-2.875 0,-0.0625 0.9375,-2.78125 0.03125,-0.0625 0.9375,-1.875 0.03125,-0.0625 1.75,-1.71875 z M 21.375,68.8125 21.5625,69.4375 21.5,69.40625 21.09375,68.96875 21.375,68.8125 z"
         id="path4399"
         inkscape:connector-curvature="0" />
      <path
         style="font-size:medium;font-style:normal;font-variant:normal;font-weight:normal;font-stretch:normal;text-indent:0;text-align:start;text-decoration:none;line-height:normal;letter-spacing:normal;word-spacing:normal;text-transform:none;direction:ltr;block-progression:tb;writing-mode:lr-tb;text-anchor:start;baseline-shift:baseline;color:#000000;fill:#000000;fill-opacity:1;stroke:none;stroke-width:1;marker:none;visibility:visible;display:inline;overflow:visible;enable-background:accumulate;font-family:Sans;-inkscape-font-specification:Sans"
         d="m 47.125,56.375 -3,1 -0.1875,0.0625 -0.09375,0.15625 -2,3 -0.03125,0.0625 -0.03125,0.0625 -1,3 0,0.0625 0,0.09375 0,2 0,0.0625 0,0.09375 1,3 0.0625,0.09375 0.0625,0.09375 1,1 0.0625,0.0625 0.0625,0.03125 2,1 0.125,0.0625 0.125,0 2,0 0.09375,0 0.125,-0.0625 2,-1 0.0625,-0.03125 0.0625,-0.0625 0.40625,-0.40625 -1.8125,6.375 -0.71875,0.75 -1.375,0.4375 -0.84375,0 0,1 8,0 0,-1 -0.84375,0 -1,-0.34375 -0.28125,-0.5 L 56.75,57 l 0.1875,-0.625 -0.65625,0 -2,0 0,0.5 -0.5,-0.15625 -1.09375,3.8125 L 51.75,57.71875 51.6875,57.5 51.5,57.40625 l -2,-1 -0.125,-0.03125 -0.09375,0 -2,0 -0.09375,0 -0.0625,0 z m 0.34375,1 1.6875,0 1.6875,0.84375 0.9375,2.8125 0,2.6875 -0.96875,2.90625 -0.03125,0.09375 -0.9375,1.84375 -0.03125,0.0625 -0.78125,0.78125 -0.0625,0.03125 -1.875,0.9375 -1.59375,0 -0.8125,-0.8125 -0.90625,-2.6875 0,-0.0625 0,-2.875 0,-0.0625 0.9375,-2.78125 0.03125,-0.0625 0.9375,-1.875 0.03125,-0.0625 1.75,-1.71875 z M 45.375,58.03125 44.90625,58.5 l -0.0625,0.0625 -0.03125,0.0625 -0.21875,0.40625 -0.375,-0.1875 0.375,-0.5625 0.78125,-0.25 z m -2,10.78125 0.1875,0.625 L 43.5,69.40625 43.09375,68.96875 43.375,68.8125 z"
         id="path4401"
         inkscape:connector-curvature="0" />
      <path
         style="font-size:medium;font-style:normal;font-variant:normal;font-weight:normal;font-stretch:normal;text-indent:0;text-align:start;text-decoration:none;line-height:normal;letter-spacing:normal;word-spacing:normal;text-transform:none;direction:ltr;block-progression:tb;writing-mode:lr-tb;text-anchor:start;baseline-shift:baseline;color:#000000;fill:#000000;fill-opacity:1;stroke:none;stroke-width:1;marker:none;visibility:visible;display:inline;overflow:visible;enable-background:accumulate;font-family:Sans;-inkscape-font-specification:Sans"
         d="m 63.0625,56.375 -0.15625,0.125 -2,2 -0.0625,0.0625 -0.03125,0.0625 -1,2 0.90625,0.46875 0.96875,-1.9375 0.03125,-0.0625 1.75,-1.71875 1.59375,0 0.71875,0.71875 0,1.65625 -1.96875,4.9375 -0.03125,0.09375 0,0.09375 0,3 0,0.09375 0.03125,0.125 1,2 0.09375,0.15625 0.125,0.0625 2,1 0.125,0.0625 0.125,0 2,0 0.09375,0 0.125,-0.0625 2,-1 0.0625,-0.03125 0.0625,-0.0625 2,-2 0.03125,-0.03125 0.03125,-0.03125 1.09375,-1.65625 0,1.375 0,0.09375 0.03125,0.125 1,2 0.03125,0.0625 0.0625,0.0625 1,1 0.15625,0.15625 0.21875,0 2,0 0.1875,0 0.15625,-0.15625 2,-2 0.0625,-0.0625 0.03125,-0.0625 1,-2 -0.90625,-0.46875 -0.96875,1.9375 -0.03125,0.0625 -1.78125,1.75 -1.53125,0 -0.71875,-0.71875 0,-1.78125 L 77.75,64 l 2,-7 0.1875,-0.625 -0.65625,0 -2,0 0,0.5 -0.5,-0.125 -1.96875,7.90625 -1.90625,2.84375 -0.0625,0.09375 -1.8125,1.8125 -0.0625,0.03125 -1.875,0.9375 -1.65625,0 -1.65625,-0.8125 0,-1.65625 1.9375,-4.84375 0.0625,-0.09375 0,-0.09375 0,-3 0,-0.125 -0.0625,-0.125 -1,-2 L 66.6875,57.5625 66.625,57.5 l -1,-1 -0.15625,-0.125 -0.1875,0 -2,0 -0.21875,0 z m 3.71875,5.5625 0,0.8125 -0.59375,1.5 L 66.75,62 66.78125,61.9375 z m -1.4375,1.5625 -0.5625,2.25 0,-0.84375 0,-0.03125 0.5625,-1.375 z"
         id="path4403"
         inkscape:connector-curvature="0" />
      <path
         style="font-size:medium;font-style:normal;font-variant:normal;font-weight:normal;font-stretch:normal;text-indent:0;text-align:start;text-decoration:none;line-height:normal;letter-spacing:normal;word-spacing:normal;text-transform:none;direction:ltr;block-progression:tb;writing-mode:lr-tb;text-anchor:start;baseline-shift:baseline;color:#000000;fill:#000000;fill-opacity:1;stroke:none;stroke-width:1;marker:none;visibility:visible;display:inline;overflow:visible;enable-background:accumulate;font-family:Sans;-inkscape-font-specification:Sans"
         d="m 91.28125,49.375 0,0.5 -0.5,0 0,2 0,0.5 0.5,0 2,0 0.5,0 0,-0.5 0,-2 0,-0.5 -0.5,0 -2,0 z m -4.21875,7 -0.15625,0.125 -2,2 -0.0625,0.0625 -0.03125,0.0625 -1,2 0.90625,0.46875 0.96875,-1.9375 0.03125,-0.0625 1.75,-1.71875 1.59375,0 0.71875,0.71875 0,1.65625 -1.96875,4.9375 -0.03125,0.09375 0,0.09375 0,3 0,0.09375 0.03125,0.125 1,2 0.03125,0.0625 0.0625,0.0625 1,1 0.15625,0.15625 0.21875,0 2,0 0.1875,0 0.15625,-0.15625 2,-2 0.0625,-0.0625 0.03125,-0.0625 1,-2 -0.90625,-0.46875 -0.96875,1.9375 -0.03125,0.0625 -1.78125,1.75 -1.53125,0 -0.71875,-0.71875 0,-1.75 1.9375,-4.84375 0.0625,-0.09375 0,-0.09375 0,-3 0,-0.125 -0.0625,-0.125 -1,-2 L 90.6875,57.5625 90.625,57.5 l -1,-1 -0.15625,-0.125 -0.1875,0 -2,0 -0.21875,0 z m 3.71875,5.5625 0,0.8125 -0.59375,1.5 L 90.75,62 90.78125,61.9375 z m -1.4375,1.5625 -0.5625,2.25 0,-0.84375 0,-0.03125 0.5625,-1.375 z"
         id="path4405"
         inkscape:connector-curvature="0" />
      <path
         style="font-size:medium;font-style:normal;font-variant:normal;font-weight:normal;font-stretch:normal;text-indent:0;text-align:start;text-decoration:none;line-height:normal;letter-spacing:normal;word-spacing:normal;text-transform:none;direction:ltr;block-progression:tb;writing-mode:lr-tb;text-anchor:start;baseline-shift:baseline;color:#000000;fill:#000000;fill-opacity:1;stroke:none;stroke-width:1;marker:none;visibility:visible;display:inline;overflow:visible;enable-background:accumulate;font-family:Sans;-inkscape-font-specification:Sans"
         d="m 100.0625,56.375 -0.15625,0.125 -2,2 -0.0625,0.0625 -0.03125,0.0625 -1,2 0.90625,0.46875 0.96875,-1.9375 0.03125,-0.0625 1.75,-1.71875 1.59375,0 0.71875,0.71875 0,1.65625 -1,3.96875 0,0.03125 -2,6.96875 -0.1875,0.65625 0.6875,0 2,0 0,-0.5 0.46875,0.125 1.96875,-7.90625 1.90625,-2.875 0.0625,-0.0625 1.8125,-1.84375 0.0625,-0.03125 1.8125,-0.90625 1.78125,0 1.625,0.8125 0,1.5625 -1.96875,4.9375 -0.0313,0.09375 0,0.09375 0,3 0,0.09375 0.0313,0.125 1,2 0.0313,0.0625 0.0625,0.0625 1,1 0.15625,0.15625 0.21875,0 2,0 0.1875,0 0.15625,-0.15625 2,-2 0.0625,-0.0625 0.0313,-0.0625 1,-2 -0.90625,-0.46875 -0.96875,1.9375 -0.0313,0.0625 -1.78125,1.75 -1.53125,0 -0.71875,-0.71875 0,-1.75 1.9375,-4.84375 0.0625,-0.09375 0,-0.09375 0,-3 0,-0.125 -0.0625,-0.125 -1,-2 -0.0625,-0.125 -0.15625,-0.09375 -2,-1 -0.125,-0.03125 -0.0937,0 -2,0 -0.125,0 -0.125,0.03125 -2,1 -0.0625,0.0625 -0.0625,0.03125 -2,2 -0.0313,0.03125 -0.0313,0.0625 -1.0625,1.59375 0,-1.3125 0,-0.125 -0.0625,-0.125 -1,-2 -0.0313,-0.0625 -0.0625,-0.0625 -1,-1 -0.15625,-0.125 -0.1875,0 -2,0 -0.21875,0 z m 14.71875,5.5625 0,0.8125 -0.59375,1.5 0.5625,-2.25 0.0313,-0.0625 z m -1.4375,1.5625 -0.5625,2.25 0,-0.84375 0,-0.03125 0.5625,-1.375 z"
         id="path4407"
         inkscape:connector-curvature="0" />
      <path
         style="font-size:medium;font-style:normal;font-variant:normal;font-weight:normal;font-stretch:normal;text-indent:0;text-align:start;text-decoration:none;line-height:normal;letter-spacing:normal;word-spacing:normal;text-transform:none;direction:ltr;block-progression:tb;writing-mode:lr-tb;text-anchor:start;baseline-shift:baseline;color:#000000;fill:#000000;fill-opacity:1;stroke:none;stroke-width:1;marker:none;visibility:visible;display:inline;overflow:visible;enable-background:accumulate;font-family:Sans;-inkscape-font-specification:Sans"
         d="m 129.125,56.375 -3,1 -0.1875,0.0625 -0.0937,0.15625 -2,3 -0.0313,0.0625 -0.0313,0.0625 -1,3 0,0.0625 0,0.09375 0,2 0,0.0625 0,0.09375 1,3 0.0625,0.09375 0.0625,0.09375 1,1 0.0625,0.0625 0.0625,0.03125 2,1 0.125,0.0625 0.125,0 2,0 0.0937,0 0.125,-0.0625 2,-1 0.0625,-0.03125 0.0625,-0.0625 1,-1 0.0625,-0.0625 0.0313,-0.0625 1,-2 0,-0.03125 0.0313,-0.03125 0.0313,-0.09375 0,0.9375 0,0.09375 0.0313,0.125 1,2 0.0313,0.0625 0.0625,0.0625 1,1 0.15625,0.15625 0.21875,0 2,0 0.1875,0 0.15625,-0.15625 2,-2 0.0625,-0.0625 0.0313,-0.0625 1,-2 -0.90625,-0.46875 -0.96875,1.9375 -0.0313,0.0625 -1.78125,1.75 -1.53125,0 -0.71875,-0.71875 0,-1.78125 L 136.75,64 l 2,-7 0.1875,-0.625 -0.65625,0 -2,0 0,0.5 -0.5,-0.15625 -1.09375,3.8125 L 133.75,57.71875 133.6875,57.5 133.5,57.40625 l -2,-1 -0.125,-0.03125 -0.0937,0 -2,0 -0.0937,0 -0.0625,0 z m 0.34375,1 1.6875,0 1.6875,0.84375 0.9375,2.8125 0,2.6875 0,0.0625 -0.96875,2.84375 -0.0313,0.09375 -0.9375,1.84375 -0.0313,0.0625 -0.78125,0.78125 -0.0625,0.03125 -1.875,0.9375 -1.59375,0 -0.8125,-0.8125 -0.90625,-2.6875 0,-0.0625 0,-2.875 0,-0.0625 0.9375,-2.78125 0.0313,-0.0625 0.9375,-1.875 0.0313,-0.0625 1.75,-1.71875 z m -4.09375,11.4375 0.1875,0.625 -0.0625,-0.03125 -0.40625,-0.4375 0.28125,-0.15625 z"
         id="path4409"
         inkscape:connector-curvature="0" />
      <path
         style="font-size:medium;font-style:normal;font-variant:normal;font-weight:normal;font-stretch:normal;text-indent:0;text-align:start;text-decoration:none;line-height:normal;letter-spacing:normal;word-spacing:normal;text-transform:none;direction:ltr;block-progression:tb;writing-mode:lr-tb;text-anchor:start;baseline-shift:baseline;color:#000000;fill:#000000;fill-opacity:1;stroke:none;stroke-width:1;marker:none;visibility:visible;display:inline;overflow:visible;enable-background:accumulate;font-family:Sans;-inkscape-font-specification:Sans"
         d="m 150.125,56.375 -3,1 -0.125,0.0625 -0.0937,0.0625 -1,1 -0.125,0.15625 0,0.21875 0,1.84375 0,0.15625 0,0.09375 0.0313,0.125 1,2 0.0937,0.15625 0.125,0.0625 2,1 0.0313,0 0.0625,0.03125 2.90625,0.96875 0.0937,0.03125 1.75,0.90625 0.53125,1.03125 -0.5625,2.1875 -2.71875,0.90625 -2.6875,0 -2.90625,-0.96875 -0.0313,-0.03125 0.78125,0 0.5,0 0,-0.5 0,-2 0,-0.5 -0.5,0 -2,0 -0.5,0 0,0.5 0,2 0,0.1875 0.125,0.15625 1,1 0.0937,0.09375 0.125,0.03125 3,1 0.0625,0.03125 0.0937,0 3,0 0.0625,0 0.0937,-0.03125 3,-1 0.1875,-0.0625 0.0937,-0.1875 L 154.75,70 l 0.96875,-1.90625 0.0625,-0.125 0,-0.09375 0,-2 0,-0.125 -0.0625,-0.125 -1,-2 -0.0625,-0.125 -0.15625,-0.09375 -2,-1 -0.0313,0 -0.0313,-0.03125 -2.9375,-0.96875 -0.0625,-0.03125 -1.78125,-0.90625 -0.4375,-0.84375 0.46875,-1.375 2.59375,-0.875 0.0625,0 2.875,0 0.0625,0 2.71875,0.9375 0.0625,0.0625 -0.78125,0 -0.5,0 0,0.5 0,2 0,0.5 0.5,0 2,0 0.5,0 0,-0.5 0,-2 0,-0.21875 L 157.625,58.5 l -1,-1 -0.0937,-0.0625 -0.0937,-0.0625 -3,-1 -0.0937,0 -0.0625,0 -3,0 -0.0937,0 -0.0625,0 z m 5.65625,3.5 1,0 0,0.5 -1,0 0,-0.5 z m -8.71875,1.46875 0.375,0.1875 -0.125,0.25 -0.25,-0.4375 z m 7.15625,3.59375 0.25,0.4375 -0.375,-0.1875 0.125,-0.25 z m -9.4375,2.4375 1,0 0,0.5 -1,0 0,-0.5 z"
         id="path4411"
         inkscape:connector-curvature="0" />
      <path
         id="path4413"
         style="fill:none;stroke:#000000"
         d=""
         inkscape:connector-curvature="0" />
      <path
         style="font-size:medium;font-style:normal;font-variant:normal;font-weight:normal;font-stretch:normal;text-indent:0;text-align:start;text-decoration:none;line-height:normal;letter-spacing:normal;word-spacing:normal;text-transform:none;direction:ltr;block-progression:tb;writing-mode:lr-tb;text-anchor:start;baseline-shift:baseline;color:#000000;fill:#000000;fill-opacity:1;stroke:none;stroke-width:1;marker:none;visibility:visible;display:inline;overflow:visible;enable-background:accumulate;font-family:Sans;-inkscape-font-specification:Sans"
         d="m 177.28125,49.375 0,1 0.875,0 1.0625,0.53125 0.5625,1.125 0,16.65625 -0.5625,1.125 -1.125,0.5625 -0.8125,0 0,1 15,0 0.5,0 0,-0.5 0,-6 -0.40625,0 -0.59375,-0.09375 0,0.09375 -0.65625,3.78125 -0.40625,0.65625 -0.78125,0.5 -2.78125,0.5625 -2.71875,0 -1.125,-0.5625 -0.53125,-1.0625 0,-16.78125 0.53125,-1.0625 1.0625,-0.53125 0.90625,0 0,-1 -8,0 z m 3.5,1 1,0 0,0.5 -1,0 0,-0.5 z m 0,19.5 1,0 0,0.5 -1,0 0,-0.5 z"
         id="path4415"
         inkscape:connector-curvature="0" />
      <path
         style="font-size:medium;font-style:normal;font-variant:normal;font-weight:normal;font-stretch:normal;text-indent:0;text-align:start;text-decoration:none;line-height:normal;letter-spacing:normal;word-spacing:normal;text-transform:none;direction:ltr;block-progression:tb;writing-mode:lr-tb;text-anchor:start;baseline-shift:baseline;color:#000000;fill:#000000;fill-opacity:1;stroke:none;stroke-width:1;marker:none;visibility:visible;display:inline;overflow:visible;enable-background:accumulate;font-family:Sans;-inkscape-font-specification:Sans"
         d="m 201.28125,49.375 0,0.5 -0.5,0 0,2 0,0.5 0.5,0 2,0 0.5,0 0,-0.5 0,-2 0,-0.5 -0.5,0 -2,0 z m -4.21875,7 -0.15625,0.125 -2,2 -0.0625,0.0625 -0.0313,0.0625 -1,2 0.90625,0.46875 0.96875,-1.9375 0.0313,-0.0625 1.75,-1.71875 1.59375,0 0.71875,0.71875 0,1.65625 -1.96875,4.9375 -0.0313,0.09375 0,0.09375 0,3 0,0.09375 0.0313,0.125 1,2 0.0313,0.0625 0.0625,0.0625 1,1 0.15625,0.15625 0.21875,0 2,0 0.1875,0 0.15625,-0.15625 2,-2 0.0625,-0.0625 0.0313,-0.0625 1,-2 -0.90625,-0.46875 -0.96875,1.9375 -0.0313,0.0625 -1.78125,1.75 -1.53125,0 -0.71875,-0.71875 0,-1.75 1.9375,-4.84375 0.0625,-0.09375 0,-0.09375 0,-3 0,-0.125 -0.0625,-0.125 -1,-2 -0.0313,-0.0625 -0.0625,-0.0625 -1,-1 -0.15625,-0.125 -0.1875,0 -2,0 -0.21875,0 z m 3.71875,5.5625 0,0.8125 -0.59375,1.5 0.5625,-2.25 0.0313,-0.0625 z m -1.4375,1.5625 -0.5625,2.25 0,-0.84375 0,-0.03125 0.5625,-1.375 z"
         id="path4417"
         inkscape:connector-curvature="0" />
      <path
         style="font-size:medium;font-style:normal;font-variant:normal;font-weight:normal;font-stretch:normal;text-indent:0;text-align:start;text-decoration:none;line-height:normal;letter-spacing:normal;word-spacing:normal;text-transform:none;direction:ltr;block-progression:tb;writing-mode:lr-tb;text-anchor:start;baseline-shift:baseline;color:#000000;fill:#000000;fill-opacity:1;stroke:none;stroke-width:1;marker:none;visibility:visible;display:inline;overflow:visible;enable-background:accumulate;font-family:Sans;-inkscape-font-specification:Sans"
         d="m 210.28125,49.375 0,1 0.9375,0 0.875,0.28125 0.28125,0.53125 -1.59375,5.53125 0,0.03125 0,0.03125 -1,6 0,0.03125 0,0.0625 0,4 0,0.09375 0.0313,0.125 1,2 0.0313,0.0625 0.0625,0.0625 1,1 0.0625,0.0625 0.0625,0.03125 2,1 0.125,0.0625 0.125,0 2,0 0.0625,0 0.0937,-0.03125 3,-1 0.15625,-0.0625 0.0937,-0.125 2,-3 0.0313,-0.0625 0.0313,-0.0625 1,-3 0.0313,-0.09375 0,-0.0625 0,-2 0,-0.09375 -0.0313,-0.0625 -1,-3 -0.0313,-0.125 -0.0937,-0.09375 -1,-1 -0.0625,-0.03125 -0.0625,-0.0625 -2,-1 -0.125,-0.03125 -0.0937,0 -2,0 -0.125,0 -0.125,0.03125 -2,1 -0.0625,0.0625 L 213.90625,57.5 213.5,57.90625 213.75,57 l 2,-7 0.1875,-0.625 -0.65625,0 -3.84375,0 -1.15625,0 z m 6.09375,8 1.6875,0 0.75,0.75 0.96875,2.90625 0,2.6875 -0.96875,2.90625 -0.0313,0.09375 -0.9375,1.84375 -0.0313,0.0625 -1.78125,1.75 -1.59375,0 -1.75,-0.875 -0.90625,-2.625 0,-0.0625 0,-2.875 0,-0.0625 0.9375,-2.78125 0.0313,-0.0625 0.9375,-1.875 0.0313,-0.0625 0.78125,-0.78125 0.0625,-0.03125 1.8125,-0.90625 z m 3.5625,0.875 0.0937,0.0625 0.40625,0.4375 -0.28125,0.15625 L 219.9375,58.25 z m -9.15625,4.5 0,0.125 -0.0313,0 0.0313,-0.125 z m 8.15625,5.9375 0.375,0.1875 -0.375,0.5625 -0.8125,0.25 0.5,-0.46875 0.0625,-0.0625 0.0313,-0.0625 0.21875,-0.40625 z"
         id="path4419"
         inkscape:connector-curvature="0" />
      <path
         style="font-size:medium;font-style:normal;font-variant:normal;font-weight:normal;font-stretch:normal;text-indent:0;text-align:start;text-decoration:none;line-height:normal;letter-spacing:normal;word-spacing:normal;text-transform:none;direction:ltr;block-progression:tb;writing-mode:lr-tb;text-anchor:start;baseline-shift:baseline;color:#000000;fill:#000000;fill-opacity:1;stroke:none;stroke-width:1;marker:none;visibility:visible;display:inline;overflow:visible;enable-background:accumulate;font-family:Sans;-inkscape-font-specification:Sans"
         d="m 229.0625,56.375 -0.15625,0.125 -2,2 -0.0625,0.0625 -0.0313,0.0625 -1,2 0.90625,0.46875 0.96875,-1.9375 0.0313,-0.0625 1.75,-1.71875 1.59375,0 0.71875,0.71875 0,1.65625 -1,3.96875 0,0.03125 -2,6.96875 -0.1875,0.65625 0.6875,0 2,0 0,-0.5 0.46875,0.125 1.96875,-6.90625 0,-0.03125 L 233.75,64 l 0.0313,-0.0625 1.90625,-3.78125 0.0313,-0.0625 1.78125,-1.78125 0.0625,-0.03125 1.8125,-0.90625 0.40625,0 0,0.5 0,2 0,0.5 0.5,0 2,0 0.5,0 0,-0.5 0,-2 0,-0.21875 L 242.625,57.5 l -1,-1 -0.15625,-0.125 -0.1875,0 -2,0 -0.125,0 -0.125,0.03125 -2,1 -0.0625,0.0625 -0.0625,0.03125 -2,2 -0.0625,0.0625 -0.0313,0.0625 -1.03125,2.0625 0,-1.8125 0,-0.125 -0.0625,-0.125 -1,-2 -0.0313,-0.0625 -0.0625,-0.0625 -1,-1 -0.15625,-0.125 -0.1875,0 -2,0 -0.21875,0 z m 11.71875,2.5 1,0 0,0.5 -1,0 0,-0.5 z"
         id="path4421"
         inkscape:connector-curvature="0" />
      <path
         style="font-size:medium;font-style:normal;font-variant:normal;font-weight:normal;font-stretch:normal;text-indent:0;text-align:start;text-decoration:none;line-height:normal;letter-spacing:normal;word-spacing:normal;text-transform:none;direction:ltr;block-progression:tb;writing-mode:lr-tb;text-anchor:start;baseline-shift:baseline;color:#000000;fill:#000000;fill-opacity:1;stroke:none;stroke-width:1;marker:none;visibility:visible;display:inline;overflow:visible;enable-background:accumulate;font-family:Sans;-inkscape-font-specification:Sans"
         d="m 252.125,56.375 -3,1 -0.1875,0.0625 -0.0937,0.15625 -2,3 -0.0313,0.0625 -0.0313,0.0625 -1,3 0,0.0625 0,0.09375 0,2 0,0.0625 0,0.09375 1,3 0.0625,0.09375 0.0625,0.09375 1,1 0.0625,0.0625 0.0625,0.03125 2,1 0.125,0.0625 0.125,0 2,0 0.0625,0 0.0937,-0.03125 3,-1 0.0937,-0.03125 0.0937,-0.09375 2,-2 L 256.90625,67.5 255,69.4375 l -2.875,0.9375 -1.625,0 -0.8125,-0.8125 -0.90625,-2.6875 0,-0.0625 0,-0.8125 2.59375,-0.65625 0.0313,0 0.0313,0 3,-1 0.0625,-0.03125 0.0313,-0.03125 3,-2 0.125,-0.0625 0.0625,-0.125 1,-2 0.0937,-0.21875 -0.0937,-0.25 -1,-2 -0.0625,-0.125 -0.15625,-0.09375 -2,-1 -0.125,-0.03125 -0.0937,0 -3,0 -0.0937,0 -0.0625,0 z m 0.34375,1 2.6875,0 1.71875,0.875 0.8125,1.625 -0.8125,1.65625 -2.75,1.84375 -0.125,0.0625 -2.84375,0.9375 -0.0313,0 -2.34375,0.59375 0,-1.03125 0,-0.0625 0.9375,-2.78125 0.0313,-0.0625 0.9375,-1.875 0.0313,-0.0625 1.75,-1.71875 z m -2.09375,0.65625 -0.46875,0.46875 -0.0625,0.0625 -0.0313,0.0625 -0.21875,0.40625 -0.375,-0.1875 0.375,-0.5625 0.78125,-0.25 z m -2,10.78125 0.1875,0.625 -0.0625,-0.03125 -0.40625,-0.4375 0.28125,-0.15625 z"
         id="path4423"
         inkscape:connector-curvature="0" />
      <path
         style="font-size:medium;font-style:normal;font-variant:normal;font-weight:normal;font-stretch:normal;text-indent:0;text-align:start;text-decoration:none;line-height:normal;letter-spacing:normal;word-spacing:normal;text-transform:none;direction:ltr;block-progression:tb;writing-mode:lr-tb;text-anchor:start;baseline-shift:baseline;color:#000000;fill:#000000;fill-opacity:1;stroke:none;stroke-width:1;marker:none;visibility:visible;display:inline;overflow:visible;enable-background:accumulate;font-family:Sans;-inkscape-font-specification:Sans"
         d="m 269.125,56.375 -3,1 -0.125,0.0625 -0.0937,0.0625 -1,1 -0.125,0.15625 0,0.21875 0,1.84375 0,0.15625 0,0.09375 0.0313,0.125 1,2 0.0937,0.15625 0.125,0.0625 2,1 0.0313,0 0.0625,0.03125 2.90625,0.96875 0.0937,0.03125 1.75,0.90625 0.53125,1.03125 -0.5625,2.1875 -2.71875,0.90625 -2.6875,0 -2.90625,-0.96875 -0.0313,-0.03125 0.78125,0 0.5,0 0,-0.5 0,-2 0,-0.5 -0.5,0 -2,0 -0.5,0 0,0.5 0,2 0,0.1875 0.125,0.15625 1,1 0.0937,0.09375 0.125,0.03125 3,1 0.0625,0.03125 0.0937,0 3,0 0.0625,0 0.0937,-0.03125 3,-1 0.1875,-0.0625 0.0937,-0.1875 L 273.75,70 l 0.96875,-1.90625 0.0625,-0.125 0,-0.09375 0,-2 0,-0.125 -0.0625,-0.125 -1,-2 -0.0625,-0.125 -0.15625,-0.09375 -2,-1 -0.0313,0 -0.0313,-0.03125 -2.9375,-0.96875 -0.0625,-0.03125 -1.78125,-0.90625 -0.4375,-0.84375 0.46875,-1.375 2.59375,-0.875 0.0625,0 2.875,0 0.0625,0 2.71875,0.9375 0.0625,0.0625 -0.78125,0 -0.5,0 0,0.5 0,2 0,0.5 0.5,0 2,0 0.5,0 0,-0.5 0,-2 0,-0.21875 L 276.625,58.5 l -1,-1 -0.0937,-0.0625 -0.0937,-0.0625 -3,-1 -0.0937,0 -0.0625,0 -3,0 -0.0937,0 -0.0625,0 z m 5.65625,3.5 1,0 0,0.5 -1,0 0,-0.5 z m -8.71875,1.46875 0.375,0.1875 -0.125,0.25 -0.25,-0.4375 z m 7.15625,3.59375 0.25,0.4375 -0.375,-0.1875 0.125,-0.25 z m -9.4375,2.4375 1,0 0,0.5 -1,0 0,-0.5 z"
         id="path4425"
         inkscape:connector-curvature="0" />
      <path
         style="font-size:medium;font-style:normal;font-variant:normal;font-weight:normal;font-stretch:normal;text-indent:0;text-align:start;text-decoration:none;line-height:normal;letter-spacing:normal;word-spacing:normal;text-transform:none;direction:ltr;block-progression:tb;writing-mode:lr-tb;text-anchor:start;baseline-shift:baseline;color:#000000;fill:#000000;fill-opacity:1;stroke:none;stroke-width:1;marker:none;visibility:visible;display:inline;overflow:visible;enable-background:accumulate;font-family:Sans;-inkscape-font-specification:Sans"
         d="m 16.875,109.6875 -0.09375,0.0313 -2,1 -0.15625,0.0937 -0.0625,0.15625 -1,2 -0.0625,0.0937 0,0.125 0,1 0,0.125 0.0625,0.0937 1,2 0.0625,0.15625 0.15625,0.0625 2,1 0.4375,-0.90625 -1.875,-0.9375 -0.84375,-1.6875 0,-0.8125 0.875,-1.71875 1.71875,-0.875 0.8125,0 1.71875,0.875 0.875,1.71875 0,1.8125 0,0.0937 -1,4.90625 0.03125,0 -0.96875,3.78125 -0.03125,0.125 0,0.0313 0,0.0313 -2,6.96875 0.9375,0.28125 2,-6.96875 0,-0.0313 0.03125,0 0.03125,-0.15625 2.90625,-7.75 0.03125,-0.0625 1.9375,-3.875 0.03125,-0.0625 0.78125,-0.78125 0.0625,-0.0313 1.8125,-0.90625 0.8125,0 1.71875,0.875 0.875,1.71875 0,1.8125 0,0.0937 -1,4.90625 0.03125,0 -0.96875,3.78125 -0.03125,0.125 0,0.0313 0,0.0313 -2,6.96875 0.9375,0.28125 2,-6.96875 0,-0.0313 0.03125,0 0.03125,-0.15625 2.90625,-7.75 0.03125,-0.0625 1.9375,-3.875 0.03125,-0.0625 0.78125,-0.78125 0.0625,-0.0313 1.8125,-0.90625 0.8125,0 1.71875,0.875 0.875,1.71875 0,1.8125 0,0.0937 -0.96875,4.84375 -0.03125,0.0625 -1.96875,6.9375 -0.03125,0.0937 0,0.0625 0,3 0,0.1875 0.15625,0.15625 1,1 0.125,0.15625 0.21875,0 1,0 0.125,0 0.09375,-0.0625 2,-1 0.09375,-0.0313 0.03125,-0.0625 1,-1 0.03125,-0.0313 0.03125,-0.0313 2,-3 -0.8125,-0.5625 -1.9375,2.90625 -0.0625,0.0937 -0.8125,0.8125 -0.0625,0.0313 -1.875,0.9375 -0.625,0 -0.71875,-0.71875 0,-2.78125 1.96875,-6.875 0.03125,0 0,-0.0313 1,-5 0,-0.0625 0,-0.0313 0,-2 0,-0.125 -0.0625,-0.0937 -1,-2 -0.0625,-0.15625 -0.15625,-0.0937 -2,-1 -0.09375,-0.0313 -0.125,0 -1,0 -0.125,0 -0.09375,0.0313 -2,1 -0.0625,0.0625 -0.0625,0.0313 -1,1 -0.0625,0.0625 -0.03125,0.0937 -2,4 -0.03125,0 0,0.0313 -0.375,1 0.34375,-1.71875 0,-0.0625 0,-0.0313 0,-2 0,-0.125 -0.0625,-0.0937 -1,-2 -0.0625,-0.15625 -0.15625,-0.0937 -2,-1 -0.09375,-0.0313 -0.125,0 -1,0 -0.125,0 -0.09375,0.0313 -2,1 -0.0625,0.0625 -0.0625,0.0313 -1,1 -0.0625,0.0625 -0.03125,0.0937 -2,4 -0.03125,0 0,0.0313 -0.375,1 0.34375,-1.71875 0,-0.0625 0,-0.0313 0,-2 0,-0.125 -0.0625,-0.0937 -1,-2 -0.0625,-0.15625 -0.15625,-0.0937 -2,-1 -0.09375,-0.0313 -0.125,0 -1,0 -0.125,0 z"
         id="path4809"
         inkscape:connector-curvature="0" />
      <path
         style="font-size:medium;font-style:normal;font-variant:normal;font-weight:normal;font-stretch:normal;text-indent:0;text-align:start;text-decoration:none;line-height:normal;letter-spacing:normal;word-spacing:normal;text-transform:none;direction:ltr;block-progression:tb;writing-mode:lr-tb;text-anchor:start;baseline-shift:baseline;color:#000000;fill:#000000;fill-opacity:1;stroke:none;stroke-width:1;marker:none;visibility:visible;display:inline;overflow:visible;enable-background:accumulate;font-family:Sans;-inkscape-font-specification:Sans"
         d="m 48.875,121.6875 -0.09375,0.0313 -2,1 -0.0625,0.0625 -0.0625,0.0313 -1,1 -0.0625,0.0625 -0.03125,0.0937 -1,2 -0.0625,0.0937 0,0.125 0,2 0,0.125 0.0625,0.0937 1,2 0.0625,0.15625 0.15625,0.0625 2,1 0.09375,0.0625 0.125,0 2,0 0.125,0 0.09375,-0.0625 2,-1 0.15625,-0.0625 0.0625,-0.15625 1,-2 0.03125,-0.0313 0,-0.0313 0.03125,-0.0937 0,1.9375 0,0.1875 0.15625,0.15625 1,1 0.125,0.15625 0.21875,0 1,0 0.125,0 0.09375,-0.0625 2,-1 0.09375,-0.0313 0.03125,-0.0625 1,-1 0.03125,-0.0313 0.03125,-0.0313 2,-3 -0.8125,-0.5625 -1.9375,2.90625 -0.0625,0.0937 -0.8125,0.8125 -0.0625,0.0313 -1.875,0.9375 -0.625,0 -0.71875,-0.71875 0,-2.6875 0,-0.0937 0.96875,-4.84375 0.03125,-0.0625 -0.96875,-0.25 -0.03125,0.0625 0,0.0937 -0.59375,1.71875 -0.46875,-0.9375 -0.0625,-0.15625 -0.15625,-0.0937 -2,-1 -0.09375,-0.0313 -0.125,0 -2,0 -0.125,0 z m 0.21875,1 1.8125,0 1.71875,0.875 0.84375,1.65625 -0.90625,2.75 -0.03125,0.0625 -0.875,1.75 -1.8125,0.90625 -1.6875,0 -1.8125,-0.90625 -0.84375,-1.6875 0,-1.8125 0.90625,-1.8125 0.03125,-0.0625 0.78125,-0.78125 0.0625,-0.0313 1.8125,-0.90625 z"
         id="path4811"
         inkscape:connector-curvature="0" />
      <path
         style="font-size:medium;font-style:normal;font-variant:normal;font-weight:normal;font-stretch:normal;text-indent:0;text-align:start;text-decoration:none;line-height:normal;letter-spacing:normal;word-spacing:normal;text-transform:none;direction:ltr;block-progression:tb;writing-mode:lr-tb;text-anchor:start;baseline-shift:baseline;color:#000000;fill:#000000;fill-opacity:1;stroke:none;stroke-width:1;marker:none;visibility:visible;display:inline;overflow:visible;enable-background:accumulate;font-family:Sans;-inkscape-font-specification:Sans"
         d="m 64.875,121.6875 -0.09375,0.0313 -2,1 -0.0625,0.0625 -0.0625,0.0313 -1,1 -0.0625,0.0625 -0.03125,0.0937 -1,2 -0.0625,0.0937 0,0.125 0,2 0,0.125 0.0625,0.0937 1,2 0.0625,0.15625 0.15625,0.0625 2,1 0.09375,0.0625 0.125,0 2,0 0.125,0 0.09375,-0.0625 L 67,131.25 l -2.46875,5.71875 0,0.0313 0,0.0313 -1,3 -0.03125,0.0625 0,0.0937 0,2 0,0.1875 0.15625,0.15625 1,1 0.25,0.25 0.3125,-0.15625 2,-1 0.1875,-0.0937 0.0625,-0.1875 1,-3 0.03125,-0.0937 0,-0.0625 0,-6.6875 1.71875,-0.875 0.03125,0 0.03125,-0.0313 3,-2 0.03125,-0.0313 0.03125,-0.0313 3,-3 -0.6875,-0.71875 -2.9375,2.9375 -0.0625,0.0625 -2.875,1.90625 -0.0625,0.0313 -1.78125,0.90625 0.53125,-1.28125 2,-5 0,-0.0313 1,-3 -0.9375,-0.3125 -0.625,1.875 -0.46875,-0.9375 -0.0625,-0.15625 -0.15625,-0.0937 -2,-1 -0.09375,-0.0313 -0.125,0 -2,0 -0.125,0 z m 0.21875,1 1.8125,0 1.71875,0.875 0.84375,1.625 -1.84375,4.625 -1.78125,0.875 -1.6875,0 -1.8125,-0.90625 -0.84375,-1.6875 0,-1.8125 0.90625,-1.8125 0.03125,-0.0625 0.78125,-0.78125 0.0625,-0.0313 1.8125,-0.90625 z m 2.40625,9.9375 0,6.5 0,0.0625 -0.90625,2.625 -1.5,0.75 -0.59375,-0.59375 0,-1.71875 0,-0.0625 0.96875,-2.8125 0,-0.0313 L 67.5,132.625 z"
         id="path4813"
         inkscape:connector-curvature="0" />
      <path
         style="font-size:medium;font-style:normal;font-variant:normal;font-weight:normal;font-stretch:normal;text-indent:0;text-align:start;text-decoration:none;line-height:normal;letter-spacing:normal;word-spacing:normal;text-transform:none;direction:ltr;block-progression:tb;writing-mode:lr-tb;text-anchor:start;baseline-shift:baseline;color:#000000;fill:#000000;fill-opacity:1;stroke:none;stroke-width:1;marker:none;visibility:visible;display:inline;overflow:visible;enable-background:accumulate;font-family:Sans;-inkscape-font-specification:Sans"
         d="m 77.5625,121.96875 -0.03125,0.0625 -1.96875,3.9375 0.5625,0.28125 -0.59375,1.78125 -0.03125,0.0625 0,0.0937 0,2 0,0.1875 0.15625,0.15625 1,1 0.125,0.15625 0.21875,0 2,0 0.125,0 0.09375,-0.0625 2,-1 0.09375,-0.0313 0.03125,-0.0625 2,-2 0.03125,-0.0313 0.03125,-0.0313 0.09375,-0.15625 0,1.875 0,0.1875 0.15625,0.15625 1,1 0.125,0.15625 0.21875,0 1,0 0.125,0 0.09375,-0.0625 2,-1 0.09375,-0.0313 0.03125,-0.0625 1,-1 0.03125,-0.0313 0.03125,-0.0313 2,-3 -0.8125,-0.5625 -1.9375,2.90625 -0.0625,0.0937 -0.8125,0.8125 -0.0625,0.0313 -1.875,0.9375 -0.625,0 -0.71875,-0.71875 0,-1.71875 0,-0.0625 0.90625,-2.71875 1.0625,-3.125 -0.9375,-0.3125 -0.9375,2.875 -0.03125,0.0625 -1.90625,2.84375 -0.0625,0.0937 -1.8125,1.8125 -0.0625,0.0313 -1.875,0.9375 -1.625,0 -0.71875,-0.71875 0,-1.71875 0,-0.0625 1.9375,-5.78125 0.03125,-0.0625 -0.90625,-0.375 z"
         id="path4815"
         inkscape:connector-curvature="0" />
      <path
         style="font-size:medium;font-style:normal;font-variant:normal;font-weight:normal;font-stretch:normal;text-indent:0;text-align:start;text-decoration:none;line-height:normal;letter-spacing:normal;word-spacing:normal;text-transform:none;direction:ltr;block-progression:tb;writing-mode:lr-tb;text-anchor:start;baseline-shift:baseline;color:#000000;fill:#000000;fill-opacity:1;stroke:none;stroke-width:1;marker:none;visibility:visible;display:inline;overflow:visible;enable-background:accumulate;font-family:Sans;-inkscape-font-specification:Sans"
         d="m 94,116.6875 0,0.5 -0.5,0 0,1 0,0.5 0.5,0 1,0 0.5,0 0,-0.5 0,-1 0,-0.5 -0.5,0 -1,0 z m -1.4375,5.28125 -0.03125,0.0625 -1.96875,3.9375 0.5625,0.28125 -0.59375,1.78125 -0.03125,0.0625 0,0.0937 0,2 0,0.1875 0.15625,0.15625 1,1 0.125,0.15625 0.21875,0 1,0 0.125,0 0.09375,-0.0625 2,-1 0.09375,-0.0313 0.03125,-0.0625 1,-1 0.03125,-0.0313 0.03125,-0.0313 2,-3 -0.8125,-0.5625 -1.9375,2.90625 -0.0625,0.0937 -0.8125,0.8125 -0.0625,0.0313 -1.875,0.9375 -0.625,0 -0.71875,-0.71875 0,-1.71875 0,-0.0625 1.9375,-5.78125 0.03125,-0.0625 -0.90625,-0.375 z"
         id="path4817"
         inkscape:connector-curvature="0" />
      <path
         style="font-size:medium;font-style:normal;font-variant:normal;font-weight:normal;font-stretch:normal;text-indent:0;text-align:start;text-decoration:none;line-height:normal;letter-spacing:normal;word-spacing:normal;text-transform:none;direction:ltr;block-progression:tb;writing-mode:lr-tb;text-anchor:start;baseline-shift:baseline;color:#000000;fill:#000000;fill-opacity:1;stroke:none;stroke-width:1;marker:none;visibility:visible;display:inline;overflow:visible;enable-background:accumulate;font-family:Sans;-inkscape-font-specification:Sans"
         d="m 102.09375,121.5625 -0.3125,0.15625 -2,1 -0.125,0.0625 -0.0625,0.125 -2,3 0.8125,0.5625 1.9375,-2.90625 1.5625,-0.78125 0.59375,0.59375 0,0.8125 -0.9375,3.78125 -0.0313,0.0625 0,0.0313 -1,2.96875 0.9375,0.3125 0.96875,-2.9375 0.0313,-0.0625 0,-0.0313 0.0313,0 0,-0.0625 0.90625,-1.78125 0.0313,-0.0625 1.90625,-2.84375 1.75,-0.875 1.71875,0 0.6875,0.6875 0,1.75 0,0.0625 -0.96875,2.84375 -0.0313,0.0625 0,0.0937 0,2 0,0.1875 0.15625,0.15625 1,1 0.125,0.15625 0.21875,0 1,0 0.125,0 0.0937,-0.0625 2,-1 0.0937,-0.0313 0.0313,-0.0625 1,-1 0.0313,-0.0313 0.0313,-0.0313 2,-3 -0.8125,-0.5625 -1.9375,2.90625 -0.0625,0.0937 -0.8125,0.8125 -0.0625,0.0313 -1.875,0.9375 -0.625,0 -0.71875,-0.71875 0,-1.71875 0,-0.0625 0.96875,-2.84375 0.0313,-0.0937 0,-0.0625 0,-2 0,-0.21875 -0.15625,-0.15625 -1,-1 -0.125,-0.125 -0.21875,0 -2,0 -0.125,0 -0.0937,0.0313 -2,1 -0.125,0.0625 -0.0625,0.125 -1.1875,1.78125 0.0937,-0.375 0,-0.0625 0,-0.0625 0,-1 0,-0.21875 -0.15625,-0.15625 -1,-1 -0.25,-0.25 z"
         id="path4819"
         inkscape:connector-curvature="0" />
      <path
         style="font-size:medium;font-style:normal;font-variant:normal;font-weight:normal;font-stretch:normal;text-indent:0;text-align:start;text-decoration:none;line-height:normal;letter-spacing:normal;word-spacing:normal;text-transform:none;direction:ltr;block-progression:tb;writing-mode:lr-tb;text-anchor:start;baseline-shift:baseline;color:#000000;fill:#000000;fill-opacity:1;stroke:none;stroke-width:1;marker:none;visibility:visible;display:inline;overflow:visible;enable-background:accumulate;font-family:Sans;-inkscape-font-specification:Sans"
         d="m 119.875,121.6875 -0.0937,0.0313 -2,1 -0.0625,0.0625 -0.0625,0.0313 -1,1 -0.0625,0.0625 -0.0313,0.0937 -1,2 -0.0625,0.0937 0,0.125 0,2 0,0.125 0.0625,0.0937 1,2 0.0625,0.15625 0.15625,0.0625 2,1 0.0937,0.0625 0.125,0 2,0 0.125,0 0.0937,-0.0625 2,-1 0.15625,-0.0625 0.0625,-0.15625 1,-2 0.0313,-0.0313 0,-0.0313 0.0313,-0.0937 0,1.9375 0,0.1875 0.15625,0.15625 1,1 0.125,0.15625 0.21875,0 1,0 0.125,0 0.0937,-0.0625 2,-1 0.0937,-0.0313 0.0313,-0.0625 1,-1 0.0313,-0.0313 0.0313,-0.0313 2,-3 -0.8125,-0.5625 -1.9375,2.90625 -0.0625,0.0937 -0.8125,0.8125 -0.0625,0.0313 -1.875,0.9375 -0.625,0 -0.71875,-0.71875 0,-2.6875 0,-0.0937 0.96875,-4.84375 0.0313,-0.0625 -0.96875,-0.25 -0.0313,0.0625 0,0.0937 -0.59375,1.71875 -0.46875,-0.9375 -0.0625,-0.15625 -0.15625,-0.0937 -2,-1 -0.0937,-0.0313 -0.125,0 -2,0 -0.125,0 z m 0.21875,1 1.8125,0 1.71875,0.875 0.84375,1.65625 -0.90625,2.75 -0.0313,0.0625 -0.875,1.75 -1.8125,0.90625 -1.6875,0 -1.8125,-0.90625 -0.84375,-1.6875 0,-1.8125 0.90625,-1.8125 0.0313,-0.0625 0.78125,-0.78125 0.0625,-0.0313 1.8125,-0.90625 z"
         id="path4821"
         inkscape:connector-curvature="0" />
      <path
         style="font-size:medium;font-style:normal;font-variant:normal;font-weight:normal;font-stretch:normal;text-indent:0;text-align:start;text-decoration:none;line-height:normal;letter-spacing:normal;word-spacing:normal;text-transform:none;direction:ltr;block-progression:tb;writing-mode:lr-tb;text-anchor:start;baseline-shift:baseline;color:#000000;fill:#000000;fill-opacity:1;stroke:none;stroke-width:1;marker:none;visibility:visible;display:inline;overflow:visible;enable-background:accumulate;font-family:Sans;-inkscape-font-specification:Sans"
         d="m 134.5625,120.96875 -0.96875,1.9375 -0.0313,0.0625 -1.96875,2.9375 0.8125,0.5625 2,-3 0.0313,-0.0313 0,-0.0313 0.0625,-0.125 0,0.0625 0.0937,0.125 1.96875,2.9375 0.0313,0.0625 0.90625,1.8125 0,1.59375 -1.65625,0.8125 -1.6875,0 -1.9375,-0.96875 -0.4375,0.90625 2,1 0.0937,0.0625 0.125,0 4,0 0.125,0 0.0937,-0.0625 2,-1 0.0937,-0.0313 0.0313,-0.0625 1,-1 0.0313,-0.0313 0.0313,-0.0313 2,-3 -0.8125,-0.5625 -1.9375,2.90625 -0.0625,0.0937 -0.8125,0.8125 -0.0625,0.0313 -1.21875,0.625 0,-0.1875 0,-2 0,-0.125 -0.0625,-0.0937 -1,-2 0,-0.0313 -0.0313,-0.0313 -1.90625,-2.84375 0,-1.875 -0.9375,-0.21875 z"
         id="path4823"
         inkscape:connector-curvature="0" />
      <path
         inkscape:connector-curvature="0"
         d=""
         style="fill:none;stroke:#000000"
         id="path4825" />
      <path
         style="font-size:medium;font-style:normal;font-variant:normal;font-weight:normal;font-stretch:normal;text-indent:0;text-align:start;text-decoration:none;line-height:normal;letter-spacing:normal;word-spacing:normal;text-transform:none;direction:ltr;block-progression:tb;writing-mode:lr-tb;text-anchor:start;baseline-shift:baseline;color:#000000;fill:#000000;fill-opacity:1;stroke:none;stroke-width:1;marker:none;visibility:visible;display:inline;overflow:visible;enable-background:accumulate;font-family:Sans;-inkscape-font-specification:Sans"
         d="m 171.78125,109.6875 -0.125,0.125 -1,1 -0.0625,0.0625 -0.0313,0.0937 -1,2 -0.0313,0.0625 -0.0313,0.0625 -1,5 -0.5625,2.84375 -3.0625,0.75 -1.875,0 0,1 2,0 0.0625,0 0.0625,-0.0313 2.59375,-0.65625 -0.1875,1.03125 -0.0313,0.0625 -0.9375,2.875 -0.0313,0.0625 -0.875,1.78125 -0.0313,0.0313 -0.46875,0.46875 -0.875,-0.5625 -0.0313,0 -0.0313,-0.0313 -2,-1 -0.0937,-0.0313 -0.125,0 -2,0 -0.21875,0 -0.125,0.125 -1,1 -0.15625,0.15625 0,0.21875 0,2 0,0.1875 0.15625,0.15625 1,1 0.125,0.15625 0.21875,0 2,0 0.125,0 0.0937,-0.0625 2,-1 0.0937,-0.0313 0.0313,-0.0625 0.90625,-0.90625 1.46875,0.96875 0.0625,0.0313 0.0625,0.0313 3,1 0.0625,0.0313 0.0937,0 2,0 0.0937,0 0.0625,-0.0313 3,-1 0.125,-0.0313 0.0625,-0.0937 2,-2 -0.6875,-0.71875 -1.96875,1.9375 -2.6875,0.9375 -0.0625,0 -1.875,0 -0.0625,0 -2.71875,-0.9375 -1.28125,-0.875 0.34375,-0.34375 0.0625,-0.0625 0.0313,-0.0625 1,-2 0.0313,-0.0313 0,-0.0313 1,-3 0.0313,-0.0313 0,-0.0313 0.3125,-1.53125 0.3125,-0.0937 0.0937,0 0.0625,-0.0625 3,-2 0.0313,-0.0313 0.0313,-0.0313 2,-2 0.0625,-0.0625 0.0313,-0.0625 1,-2 0.0625,-0.0937 0,-0.125 0,-3 0,-0.125 -0.0625,-0.0937 -1,-2 -0.125,-0.28125 -0.3125,0 -2,0 -0.21875,0 z m 0.40625,1 1.5,0 0.8125,1.59375 0,2.8125 -0.84375,1.71875 -0.0313,0.0313 -1.90625,1.90625 -0.0625,0.0625 -2.59375,1.71875 0.4375,-2.25 1,-5 0.90625,-1.8125 0.0313,-0.0625 0.75,-0.71875 z m -12,17 1.71875,0 1.8125,0.90625 0.0625,0.0313 0.625,0.4375 -0.625,0.65625 -0.0625,0.0313 -1.875,0.9375 -1.625,0 -0.71875,-0.71875 0,-1.59375 0.6875,-0.6875 z"
         id="path4827"
         inkscape:connector-curvature="0" />
      <path
         style="font-size:medium;font-style:normal;font-variant:normal;font-weight:normal;font-stretch:normal;text-indent:0;text-align:start;text-decoration:none;line-height:normal;letter-spacing:normal;word-spacing:normal;text-transform:none;direction:ltr;block-progression:tb;writing-mode:lr-tb;text-anchor:start;baseline-shift:baseline;color:#000000;fill:#000000;fill-opacity:1;stroke:none;stroke-width:1;marker:none;visibility:visible;display:inline;overflow:visible;enable-background:accumulate;font-family:Sans;-inkscape-font-specification:Sans"
         d="m 181,116.6875 0,0.5 -0.5,0 0,1 0,0.5 0.5,0 1,0 0.5,0 0,-0.5 0,-1 0,-0.5 -0.5,0 -1,0 z m -1.4375,5.28125 -0.0313,0.0625 -1.96875,3.9375 0.5625,0.28125 -0.59375,1.78125 -0.0313,0.0625 0,0.0937 0,2 0,0.1875 0.15625,0.15625 1,1 0.125,0.15625 0.21875,0 1,0 0.125,0 0.0937,-0.0625 2,-1 0.0937,-0.0313 0.0313,-0.0625 1,-1 0.0313,-0.0313 0.0313,-0.0313 2,-3 -0.8125,-0.5625 -1.9375,2.90625 -0.0625,0.0937 -0.8125,0.8125 -0.0625,0.0313 -1.875,0.9375 -0.625,0 -0.71875,-0.71875 0,-1.71875 0,-0.0625 1.9375,-5.78125 0.0313,-0.0625 -0.90625,-0.375 z"
         id="path4829"
         inkscape:connector-curvature="0" />
      <path
         style="font-size:medium;font-style:normal;font-variant:normal;font-weight:normal;font-stretch:normal;text-indent:0;text-align:start;text-decoration:none;line-height:normal;letter-spacing:normal;word-spacing:normal;text-transform:none;direction:ltr;block-progression:tb;writing-mode:lr-tb;text-anchor:start;baseline-shift:baseline;color:#000000;fill:#000000;fill-opacity:1;stroke:none;stroke-width:1;marker:none;visibility:visible;display:inline;overflow:visible;enable-background:accumulate;font-family:Sans;-inkscape-font-specification:Sans"
         d="m 191.09375,109.5625 -0.3125,0.15625 -2,1 -0.15625,0.0937 -0.0625,0.15625 -1,2 -0.0313,0.0313 0,0.0625 -1,4 -0.0313,0.0313 -1,7 0,0.0625 0,0.0313 0,0.375 -0.90625,1.34375 0.8125,0.5625 0.0937,-0.15625 0,3.875 0,0.1875 0.15625,0.15625 1,1 0.125,0.15625 0.21875,0 1,0 0.125,0 0.0937,-0.0625 2,-1 0.0937,-0.0313 0.0313,-0.0625 2,-2 0.0937,-0.0937 0.0313,-0.0937 0.90625,-2.6875 0.15625,0.65625 0.0313,0.125 0.0937,0.0937 1,1 0.125,0.15625 0.21875,0 2,0 0.125,0 0.0937,-0.0625 2,-1 -0.4375,-0.90625 -1.9375,0.96875 -1.625,0 -0.75,-0.75 -0.96875,-3.875 -1,0.125 0,2.9375 0,0.0625 -0.9375,2.6875 -1.78125,1.84375 -0.0625,0.0313 -1.875,0.9375 -0.625,0 -0.71875,-0.71875 0,-5.15625 0.90625,-1.34375 0.0313,-0.0313 3,-5 0,-0.0313 1,-2 0.0313,-0.0313 0,-0.0313 1,-3 0.0313,-0.0937 0,-0.0625 0,-2 0,-0.21875 -0.15625,-0.15625 -1,-1 -0.25,-0.25 z m -0.1875,1.21875 0.59375,0.59375 0,1.75 0,0.0625 -0.9375,2.78125 -0.0313,0.0625 -0.96875,1.90625 0,0.0313 -2.84375,4.6875 0.78125,-5.34375 0,-0.0625 1,-3.9375 0.875,-1.75 1.53125,-0.78125 z"
         id="path4831"
         inkscape:connector-curvature="0" />
      <path
         style="font-size:medium;font-style:normal;font-variant:normal;font-weight:normal;font-stretch:normal;text-indent:0;text-align:start;text-decoration:none;line-height:normal;letter-spacing:normal;word-spacing:normal;text-transform:none;direction:ltr;block-progression:tb;writing-mode:lr-tb;text-anchor:start;baseline-shift:baseline;color:#000000;fill:#000000;fill-opacity:1;stroke:none;stroke-width:1;marker:none;visibility:visible;display:inline;overflow:visible;enable-background:accumulate;font-family:Sans;-inkscape-font-specification:Sans"
         d="m 201.5625,120.96875 -0.96875,1.9375 -0.0313,0.0625 -1.96875,2.9375 0.8125,0.5625 2,-3 0.0313,-0.0313 0,-0.0313 0.0625,-0.125 0,0.40625 0.5,0 2.8125,0 0.6875,0.6875 0,1.75 0,0.0625 -0.96875,2.84375 -0.0313,0.0625 0,0.0937 0,1 0,0.1875 0.15625,0.15625 1,1 0.125,0.15625 0.21875,0 1,0 0.125,0 0.0937,-0.0625 2,-1 0.0937,-0.0313 0.0313,-0.0625 1,-1 0.0313,-0.0313 0.0313,-0.0313 2,-3 -0.8125,-0.5625 -1.9375,2.90625 -0.0625,0.0937 -0.8125,0.8125 -0.0625,0.0313 -1.875,0.9375 -0.625,0 -0.71875,-0.71875 0,-0.71875 0,-0.0625 0.96875,-2.84375 0.0313,-0.0937 0,-0.0625 0,-2 0,-0.21875 -0.15625,-0.15625 -1,-1 -0.125,-0.125 -0.21875,0 -2.5,0 0,-1.5 -0.9375,-0.21875 z"
         id="path4833"
         inkscape:connector-curvature="0" />
      <path
         style="font-size:medium;font-style:normal;font-variant:normal;font-weight:normal;font-stretch:normal;text-indent:0;text-align:start;text-decoration:none;line-height:normal;letter-spacing:normal;word-spacing:normal;text-transform:none;direction:ltr;block-progression:tb;writing-mode:lr-tb;text-anchor:start;baseline-shift:baseline;color:#000000;fill:#000000;fill-opacity:1;stroke:none;stroke-width:1;marker:none;visibility:visible;display:inline;overflow:visible;enable-background:accumulate;font-family:Sans;-inkscape-font-specification:Sans"
         d="m 214.875,121.6875 -0.0937,0.0313 -2,1 -0.15625,0.0937 -0.0625,0.15625 -1,2 -0.0625,0.0937 0,0.125 0,3 0,0.125 0.0625,0.0937 1,2 0.0625,0.15625 0.15625,0.0625 2,1 0.0937,0.0625 0.125,0 2,0 0.125,0 0.0937,-0.0625 2,-1 0.0937,-0.0313 0.0313,-0.0625 1,-1 0.0313,-0.0313 0.0313,-0.0313 2,-3 -0.8125,-0.5625 -1.9375,2.90625 -0.0625,0.0937 -0.8125,0.8125 -0.0625,0.0313 -1.875,0.9375 -1.6875,0 -1.8125,-0.90625 -0.0937,-0.1875 1.96875,-0.96875 0.0937,-0.0313 0.0313,-0.0625 1,-1 0.0625,-0.0625 0.0313,-0.0625 1,-2 0.0625,-0.0937 0,-0.125 0,-2 0,-0.21875 -0.15625,-0.15625 -1,-1 -0.125,-0.125 -0.21875,0 -1,0 -0.125,0 z m 0.21875,1 0.71875,0 0.6875,0.6875 0,1.71875 -0.84375,1.71875 -0.0313,0.0313 -0.84375,0.875 -0.0625,0.0313 -1.90625,0.96875 -0.3125,-0.625 0,-2.8125 0.875,-1.71875 1.71875,-0.875 z"
         id="path4835"
         inkscape:connector-curvature="0" />
      <path
         style="font-size:medium;font-style:normal;font-variant:normal;font-weight:normal;font-stretch:normal;text-indent:0;text-align:start;text-decoration:none;line-height:normal;letter-spacing:normal;word-spacing:normal;text-transform:none;direction:ltr;block-progression:tb;writing-mode:lr-tb;text-anchor:start;baseline-shift:baseline;color:#000000;fill:#000000;fill-opacity:1;stroke:none;stroke-width:1;marker:none;visibility:visible;display:inline;overflow:visible;enable-background:accumulate;font-family:Sans;-inkscape-font-specification:Sans"
         d="m 224.5625,120.96875 -0.96875,1.9375 -0.0313,0.0625 -1.96875,2.9375 0.8125,0.5625 2,-3 0.0313,-0.0313 0,-0.0313 0.0625,-0.125 0,0.0625 0.0937,0.125 1.96875,2.9375 0.0313,0.0625 0.90625,1.8125 0,1.59375 -1.65625,0.8125 -1.6875,0 -1.9375,-0.96875 -0.4375,0.90625 2,1 0.0937,0.0625 0.125,0 4,0 0.125,0 0.0937,-0.0625 2,-1 0.0937,-0.0313 0.0313,-0.0625 1,-1 0.0313,-0.0313 0.0313,-0.0313 2,-3 -0.8125,-0.5625 -1.9375,2.90625 -0.0625,0.0937 -0.8125,0.8125 -0.0625,0.0313 -1.21875,0.625 0,-0.1875 0,-2 0,-0.125 -0.0625,-0.0937 -1,-2 0,-0.0313 -0.0313,-0.0313 -1.90625,-2.84375 0,-1.875 -0.9375,-0.21875 z"
         id="path4837"
         inkscape:connector-curvature="0" />
    </g>
  </g>
</svg>
